<svg width="133" height="132" viewBox="0 0 133 132" fill="none" xmlns="http://www.w3.org/2000/svg">
<path d="M4.91749 64.651C4.34542 64.5839 3.82876 64.3192 3.36753 63.8569C2.90629 63.3946 2.53662 62.7927 2.25853 62.0512C1.97795 61.3309 1.78272 60.524 1.67284 59.6304C1.56297 58.7368 1.56276 57.8239 1.67222 56.8917C1.98569 54.222 3.21598 52.2507 5.36307 50.9777C7.51017 49.7048 10.4271 49.2847 14.1137 49.7176C17.8004 50.1505 20.5394 51.2454 22.3308 53.0023C24.1196 54.7803 24.8536 57.036 24.5326 59.7692C24.4331 60.6167 24.2526 61.4225 23.991 62.1865C23.7295 62.9506 23.4156 63.6118 23.0493 64.1702C22.6805 64.7499 22.2749 65.1855 21.8326 65.4773C21.3877 65.7902 20.9216 65.918 20.4343 65.8608C20.0105 65.8111 19.6422 65.5638 19.3293 65.1189C19.0375 64.6765 18.9564 64.087 19.0858 63.3504C20.3346 63.3252 21.3085 62.9885 22.0076 62.3403C22.7253 61.7157 23.1526 60.8208 23.2894 59.6554C23.5034 57.8333 22.807 56.3553 21.2002 55.2216C19.6147 54.0903 17.1269 53.3256 13.7368 52.9275C10.3468 52.5295 7.74017 52.6852 5.91698 53.3948C4.11249 54.128 3.10452 55.3951 2.89305 57.1961C2.80349 57.9589 2.8803 58.6767 3.12348 59.3497C3.36417 60.0438 3.77621 60.6507 4.3596 61.1702C4.96169 61.7135 5.72951 62.1258 6.66306 62.4073C6.65816 62.8148 6.5922 63.1937 6.46515 63.544C6.33811 63.8942 6.14437 64.1722 5.88394 64.3779C5.64221 64.6073 5.32006 64.6983 4.91749 64.651ZM3.65263 84.8679C3.43369 83.9332 3.58779 83.1411 4.11493 82.4918C4.64693 81.8633 5.63992 81.3787 7.0939 81.0381L9.58644 80.4543L9.48315 81.1358C8.1798 81.0905 6.95973 80.8395 5.82294 80.3827C4.70691 79.9211 3.75658 79.2782 2.97196 78.4541C2.20811 77.6251 1.69238 76.6394 1.42479 75.497C1.1426 74.2923 1.24075 73.2614 1.71924 72.4043C2.21849 71.5424 3.01856 70.9826 4.11943 70.7247C5.01259 70.5155 5.84502 70.5615 6.61674 70.8628C7.39331 71.1848 8.10253 71.687 8.74437 72.3693C9.38622 73.0515 9.95406 73.8388 10.4479 74.731C10.8807 75.5499 11.2433 76.3961 11.5356 77.2698C11.8279 78.1435 12.0488 78.9463 12.1983 79.6782L12.9772 79.4957C14.7635 79.0773 16.0376 78.4831 16.7994 77.7131C17.5819 76.9382 17.8151 75.8757 17.4988 74.5255C17.3869 74.0478 17.2023 73.5871 16.945 73.1434C16.6926 72.7205 16.343 72.3971 15.8961 72.1731C15.4749 71.965 14.9423 71.9363 14.2984 72.0872C13.9038 72.1796 13.4998 72.3728 13.0867 72.6668C12.6991 72.9767 12.4678 73.3924 12.3928 73.9139C12.0949 73.7646 11.8599 73.5567 11.688 73.2902C11.5368 73.0189 11.4247 72.7274 11.3517 72.4159C11.1717 71.6473 11.3086 70.9689 11.7624 70.3806C12.2418 69.8081 12.8346 69.4392 13.5408 69.2738C14.7663 68.9868 15.8299 69.3182 16.7317 70.2683C17.6335 71.2183 18.3033 72.6281 18.7412 74.4975C19.252 76.6784 19.0762 78.4067 18.2138 79.6824C17.3769 80.9739 15.8057 81.8897 13.5001 82.4298L7.45571 83.8456C6.35484 84.1035 5.88955 84.5959 6.05984 85.3229C6.09389 85.4683 6.17436 85.6247 6.30123 85.7922C6.45374 85.9756 6.64844 86.1052 6.88535 86.1812C6.7276 86.3496 6.56012 86.4765 6.38291 86.5618C6.23134 86.6631 6.07247 86.7332 5.9063 86.7721C5.42856 86.884 4.97244 86.7608 4.53793 86.4024C4.10342 86.0441 3.80832 85.5325 3.65263 84.8679ZM3.67032 76.3843C3.82245 76.9402 4.13524 77.4805 4.60867 78.005C5.10287 78.5246 5.69915 78.9656 6.39751 79.3279C7.09587 79.6901 7.85542 79.9395 8.67616 80.0759C9.4969 80.2123 10.3251 80.1936 11.1608 80.0198C11.0697 79.5372 10.9377 79.0203 10.7648 78.4692C10.6175 77.9341 10.4287 77.4086 10.1983 76.8929C9.97286 76.3979 9.71799 75.9646 9.43375 75.593C8.9227 74.8144 8.33082 74.2519 7.6581 73.9055C6.98537 73.5591 6.25436 73.4784 5.46506 73.6632C4.8627 73.8043 4.35118 74.0994 3.93052 74.5485C3.53063 74.9928 3.4439 75.6047 3.67032 76.3843ZM25.7487 92.075C26.364 93.0235 26.6632 93.9356 26.6462 94.8112C26.6472 95.6751 26.4358 96.4861 26.012 97.244C25.5883 98.002 25.0233 98.6991 24.3171 99.3352C23.6403 99.9776 22.9261 100.543 22.1744 101.03C19.7045 102.632 17.4585 103.364 15.4366 103.226C13.4262 103.106 11.8464 102.161 10.697 100.389C10.1166 99.4938 9.80215 98.617 9.75378 97.7584C9.71702 96.9177 9.92479 96.1599 10.3771 95.4851L7.53131 97.331C7.15545 97.5748 6.71381 97.874 6.20638 98.2285C5.71056 98.601 5.22054 98.9824 4.73633 99.3728C4.24583 99.7927 3.84168 100.169 3.52387 100.503C3.34682 100.465 3.11439 100.361 2.82658 100.192C2.53247 100.052 2.27513 99.8122 2.05456 99.4722C1.78754 99.0605 1.69225 98.6392 1.76868 98.2082C1.82722 97.7888 2.05336 97.4514 2.44711 97.196L17.8478 87.2447C18.3489 86.9196 18.6631 86.6395 18.7903 86.4044C18.9354 86.1577 18.9151 85.8912 18.7294 85.6048C18.6713 85.5154 18.578 85.4106 18.4493 85.2907C18.3206 85.1707 18.1378 85.124 17.9008 85.1506C17.9922 84.9387 18.101 84.7537 18.2273 84.5955C18.3535 84.4374 18.4793 84.3176 18.6046 84.2364C18.9983 83.981 19.425 83.9331 19.8845 84.0927C20.3441 84.2524 20.7364 84.5827 21.0614 85.0839C21.5955 85.9072 21.6475 86.7126 21.2174 87.5001C20.8169 88.2939 20.0439 89.0623 18.8984 89.8053L16.6433 91.268L16.0722 90.7993C17.0726 90.303 18.0357 89.9453 18.9615 89.7262C19.9169 89.5134 20.8024 89.4476 21.6179 89.5288C22.463 89.6164 23.235 89.8658 23.934 90.2769C24.633 90.6881 25.2379 91.2874 25.7487 92.075ZM23.8636 92.3441C23.4573 91.7177 22.9037 91.2758 22.2027 91.0185C21.5134 90.779 20.7274 90.704 19.8446 90.7935C18.9913 90.8893 18.086 91.1205 17.1287 91.4872C16.2009 91.8601 15.2806 92.3426 14.3678 92.9347C13.7235 93.3526 13.144 93.7921 12.6293 94.2531C12.1325 94.7025 11.739 95.1739 11.4488 95.6673C11.188 96.1669 11.069 96.6891 11.0918 97.2338C11.1145 97.7785 11.3174 98.3461 11.7005 98.9368C12.49 100.154 13.619 100.718 15.0876 100.63C16.5741 100.531 18.3733 99.7959 20.4852 98.426C21.1296 98.0081 21.7328 97.5659 22.2949 97.0996C22.8865 96.6396 23.36 96.1544 23.7156 95.6441C24.1006 95.1401 24.3202 94.6162 24.3744 94.0725C24.4286 93.5288 24.2583 92.9527 23.8636 92.3441ZM37.0924 104.388C37.9928 105.072 38.5834 105.829 38.8642 106.658C39.1579 107.471 39.2339 108.305 39.0921 109.162C38.9504 110.019 38.6551 110.866 38.2062 111.704C37.7873 112.538 37.3068 113.311 36.7648 114.025C34.9841 116.369 33.1192 117.819 31.1702 118.375C29.2382 118.943 27.4312 118.589 25.7494 117.311C24.9 116.666 24.307 115.948 23.9705 115.156C23.651 114.378 23.5896 113.595 23.7864 112.806L21.7347 115.508C21.4637 115.864 21.1496 116.296 20.7924 116.801C20.4522 117.32 20.1204 117.844 19.7972 118.376C19.478 118.937 19.2254 119.428 19.0394 119.85C18.86 119.874 18.6063 119.856 18.2781 119.794C17.954 119.762 17.6306 119.623 17.3078 119.378C16.9171 119.081 16.6846 118.717 16.6105 118.286C16.5234 117.872 16.6218 117.478 16.9057 117.104L28.0221 102.522C28.3834 102.046 28.584 101.676 28.624 101.412C28.677 101.13 28.5675 100.887 28.2957 100.68C28.2108 100.616 28.0874 100.549 27.9257 100.479C27.764 100.41 27.5761 100.428 27.3622 100.534C27.3764 100.303 27.4161 100.092 27.4812 99.9008C27.5464 99.7092 27.6242 99.5539 27.7145 99.435C27.9984 99.0612 28.3835 98.8716 28.87 98.866C29.3564 98.8604 29.8375 99.0383 30.3131 99.3996C31.0946 99.9932 31.4165 100.733 31.2788 101.62C31.171 102.503 30.7042 103.487 29.8784 104.575L28.2525 106.715L27.5564 106.468C28.3293 105.662 29.1142 104.999 29.9109 104.479C30.7376 103.955 31.5484 103.593 32.3432 103.393C33.1679 103.189 33.9788 103.162 34.7758 103.312C35.5727 103.462 36.345 103.821 37.0924 104.388ZM35.4102 105.28C34.8156 104.829 34.145 104.601 33.3983 104.596C32.6686 104.604 31.9037 104.8 31.1035 105.184C30.3331 105.563 29.5598 106.087 28.7834 106.757C28.037 107.422 27.3347 108.188 26.6766 109.054C26.212 109.666 25.8158 110.276 25.4878 110.884C25.1727 111.475 24.9623 112.052 24.8564 112.615C24.7805 113.173 24.8455 113.705 25.0515 114.209C25.2575 114.714 25.6408 115.179 26.2014 115.605C27.3566 116.483 28.6101 116.631 29.962 116.051C31.3267 115.453 32.7704 114.152 34.293 112.147C34.7576 111.536 35.1752 110.915 35.546 110.286C35.9467 109.653 36.2278 109.036 36.3893 108.435C36.5808 107.831 36.6098 107.263 36.4765 106.733C36.3432 106.203 35.9878 105.719 35.4102 105.28ZM50.4112 129.523C49.4956 129.235 48.893 128.698 48.6034 127.914C48.3342 127.136 48.4239 126.034 48.8727 124.61L49.642 122.168L50.1755 122.605C49.4717 123.703 48.6334 124.624 47.6606 125.369C46.6943 126.093 45.6565 126.583 44.5475 126.837C43.4448 127.071 42.3339 127.012 41.2148 126.659C40.0347 126.288 39.1981 125.677 38.705 124.829C38.2184 123.96 38.1449 122.986 38.4847 121.907C38.7604 121.032 39.2246 120.34 39.8774 119.83C40.5505 119.326 41.3442 118.972 42.2585 118.768C43.1727 118.564 44.1395 118.477 45.1588 118.508C46.0839 118.553 46.9967 118.673 47.8973 118.867C48.7979 119.062 49.6011 119.281 50.3068 119.526L50.5472 118.763C51.0985 117.013 51.2374 115.614 50.9637 114.566C50.6964 113.498 49.9014 112.755 48.5789 112.338C48.1109 112.191 47.6205 112.115 47.1076 112.11C46.6151 112.111 46.1585 112.247 45.7379 112.517C45.3441 112.773 45.0478 113.217 44.849 113.847C44.7272 114.234 44.6874 114.68 44.7294 115.185C44.7983 115.677 45.0378 116.088 45.4481 116.418C45.1677 116.598 44.8691 116.694 44.5522 116.706C44.2416 116.698 43.9338 116.646 43.6286 116.55C42.8757 116.312 42.362 115.848 42.0875 115.158C41.8397 114.454 41.8248 113.756 42.0428 113.064C42.421 111.863 43.2487 111.118 44.5259 110.827C45.803 110.536 47.3572 110.679 49.1885 111.256C51.3249 111.929 52.7218 112.962 53.379 114.354C54.063 115.733 54.0492 117.551 53.3376 119.81L51.472 125.731C51.1322 126.809 51.3184 127.461 52.0305 127.685C52.173 127.73 52.3486 127.741 52.5573 127.717C52.7929 127.679 53.0037 127.578 53.1899 127.413C53.2543 127.635 53.278 127.843 53.261 128.039C53.2707 128.221 53.25 128.394 53.1987 128.556C53.0512 129.024 52.7126 129.354 52.1827 129.545C51.6528 129.736 51.0623 129.729 50.4112 129.523ZM43.1234 125.181C43.6792 125.333 44.3035 125.34 44.9961 125.2C45.6952 125.04 46.3786 124.752 47.0464 124.337C47.7143 123.921 48.3162 123.395 48.8522 122.758C49.3882 122.122 49.7946 121.4 50.0714 120.593C49.6098 120.425 49.0979 120.275 48.5357 120.142C48.0003 119.996 47.452 119.89 46.891 119.825C46.3502 119.767 45.8475 119.765 45.3829 119.82C44.4525 119.862 43.6667 120.084 43.0257 120.486C42.3846 120.888 41.9422 121.476 41.6986 122.249C41.5127 122.839 41.5056 123.43 41.6773 124.02C41.8554 124.591 42.3374 124.978 43.1234 125.181ZM64.3925 131.573C63.2839 131.616 62.3587 131.427 61.6166 131.007C60.8951 130.565 60.317 129.969 59.8824 129.217C59.4479 128.465 59.1276 127.634 58.9218 126.724C58.7151 125.792 58.5942 124.868 58.5589 123.952C58.4464 121.031 58.9341 118.728 60.0221 117.042C61.1313 115.356 62.7731 114.471 64.9475 114.387C66.0347 114.345 66.9489 114.523 67.6901 114.922C68.4527 115.319 68.9979 115.896 69.3259 116.652L69.1831 112.943C69.1519 112.133 69.0887 111.324 68.9936 110.516C68.8976 109.687 68.7406 108.936 68.5224 108.261C68.6454 108.128 68.8426 107.982 69.114 107.822C69.4059 107.64 69.7543 107.541 70.1594 107.525C70.6497 107.506 71.06 107.629 71.3905 107.894C71.7209 108.159 71.896 108.547 71.9157 109.059L72.5831 127.223C72.6053 127.798 72.707 128.221 72.8882 128.492C73.0899 128.74 73.3506 128.858 73.6704 128.846C73.777 128.842 73.9147 128.815 74.0836 128.766C74.273 128.695 74.4067 128.561 74.4845 128.366C74.6403 128.531 74.7432 128.709 74.7933 128.899C74.8646 129.088 74.9031 129.257 74.9089 129.407C74.9278 129.897 74.7404 130.299 74.3469 130.613C73.9525 130.906 73.4462 131.064 72.828 131.088C71.8688 131.125 71.1398 130.769 70.6413 130.019C70.1633 129.248 69.8976 128.169 69.8442 126.784L69.7445 124.194L70.4393 123.943C70.3541 125.056 70.1582 126.067 69.8516 126.975C69.5663 127.883 69.1699 128.678 68.6624 129.359C68.1763 130.04 67.5777 130.575 66.8669 130.965C66.1552 131.334 65.3304 131.537 64.3925 131.573ZM65.1254 129.815C65.8715 129.787 66.5237 129.537 67.082 129.068C67.6609 128.576 68.127 127.928 68.4803 127.124C68.855 126.32 69.1185 125.402 69.271 124.372C69.4447 123.34 69.5099 122.26 69.4664 121.13C69.4417 120.49 69.3642 119.864 69.2338 119.25C69.1026 118.614 68.8992 118.045 68.6237 117.544C68.3482 117.042 67.9596 116.651 67.4578 116.372C66.956 116.092 66.3214 115.967 65.5539 115.997C64.1896 116.049 63.1701 116.74 62.4954 118.068C61.8411 119.374 61.5616 121.264 61.6569 123.736C61.6881 124.546 61.75 125.323 61.8427 126.067C61.9567 126.81 62.1424 127.475 62.3999 128.063C62.6566 128.63 63.0046 129.075 63.4441 129.4C63.8828 129.703 64.4432 129.842 65.1254 129.815ZM88.6734 127.641C86.4966 128.517 84.5158 128.51 82.7311 127.619C80.9582 126.7 79.5697 124.994 78.5656 122.5C77.5536 119.987 77.3682 117.785 78.0096 115.894C78.6707 113.995 80.0897 112.607 82.2665 111.73C84.4433 110.854 86.4182 110.875 88.1911 111.794C89.964 112.713 91.3565 114.429 92.3685 116.942C93.3726 119.435 93.5539 121.628 92.9126 123.519C92.2633 125.39 90.8502 126.764 88.6734 127.641ZM88.2192 126.513C89.5253 125.987 90.2796 125.005 90.4823 123.566C90.7048 122.12 90.3737 120.298 89.4892 118.101C88.5967 115.885 87.569 114.333 86.4063 113.444C85.2553 112.527 84.0268 112.332 82.7207 112.858C81.3948 113.392 80.6247 114.392 80.4102 115.858C80.2075 117.297 80.5524 119.124 81.4449 121.341C82.3294 123.537 83.3432 125.084 84.4862 125.981C85.649 126.869 86.8933 127.047 88.2192 126.513ZM108.031 116.72C106.239 118.267 104.36 118.931 102.395 118.711C100.445 118.477 98.5647 117.311 96.7524 115.212C95.0098 113.193 94.1454 111.163 94.159 109.122C94.1748 107.051 95.1194 105.207 96.9926 103.59C98.3652 102.405 99.6577 101.797 100.87 101.765C102.082 101.733 103.072 102.161 103.839 103.049C104.341 103.63 104.583 104.238 104.567 104.872C104.551 105.506 104.284 106.046 103.768 106.492C103.542 106.687 103.273 106.849 102.961 106.978C102.665 107.092 102.376 107.116 102.093 107.05C102.24 106.698 102.26 106.329 102.152 105.943C102.044 105.557 101.823 105.17 101.488 104.782C101.084 104.314 100.651 104.025 100.19 103.916C99.7318 103.776 99.2852 103.781 98.8507 103.931C98.4162 104.08 97.989 104.336 97.5692 104.699C96.6003 105.535 96.1913 106.677 96.3422 108.125C96.4952 109.543 97.3176 111.116 98.8093 112.844C99.9245 114.136 100.993 115.031 102.015 115.53C103.04 115.998 104.004 116.152 104.908 115.992C105.815 115.801 106.639 115.385 107.382 114.744C107.963 114.242 108.405 113.692 108.706 113.094C109.023 112.482 109.191 111.844 109.209 111.18C109.228 110.515 109.071 109.861 108.741 109.217C108.958 109.142 109.182 109.174 109.414 109.312C109.646 109.45 109.887 109.777 110.136 110.295C110.601 111.388 110.64 112.495 110.256 113.616C109.871 114.737 109.129 115.772 108.031 116.72ZM103.424 94.3118C103.135 94.734 102.732 95.0008 102.215 95.1123C101.711 95.2061 101.248 95.1082 100.826 94.8186C100.386 94.5169 100.119 94.1139 100.025 93.6097C99.9434 93.0879 100.047 92.6159 100.337 92.1937C100.627 91.7715 101.024 91.5134 101.528 91.4196C102.032 91.3257 102.504 91.4296 102.944 91.7313C103.366 92.021 103.624 92.4179 103.718 92.9221C103.812 93.4264 103.714 93.8896 103.424 94.3118ZM116.924 101.672C117.434 102.022 117.963 102.346 118.509 102.643C119.055 102.94 119.588 103.163 120.107 103.312C120.14 103.49 120.133 103.745 120.088 104.075C120.071 104.401 119.949 104.73 119.719 105.065C119.454 105.452 119.116 105.699 118.707 105.806C118.291 105.883 117.881 105.783 117.477 105.505L108.144 99.141C107.616 98.779 107.079 98.4493 106.533 98.1521C105.999 97.8373 105.466 97.6142 104.935 97.4829C104.914 97.2873 104.921 97.0329 104.954 96.7198C104.988 96.4066 105.12 96.0829 105.349 95.7487C105.614 95.3617 105.946 95.1235 106.344 95.0341C106.736 94.915 107.143 95.0004 107.565 95.29L116.924 101.672ZM129.491 83.5411C129.181 84.4496 128.63 85.0392 127.839 85.3099C127.054 85.5605 125.956 85.4444 124.542 84.9617L122.12 84.1342L122.569 83.6113C123.65 84.3412 124.551 85.2012 125.272 86.1916C125.973 87.175 126.438 88.2241 126.665 89.339C126.873 90.4469 126.787 91.556 126.408 92.6664C126.008 93.8373 125.378 94.6591 124.518 95.1317C123.637 95.5974 122.662 95.6475 121.592 95.282C120.724 94.9855 120.043 94.5048 119.548 93.84C119.061 93.155 118.726 92.3531 118.544 91.4342C118.362 90.5154 118.298 89.5468 118.353 88.5285C118.421 87.6048 118.562 86.695 118.778 85.7994C118.994 84.9037 119.233 84.106 119.494 83.4063L118.737 83.1477C117.001 82.5547 115.606 82.3824 114.551 82.631C113.477 82.8726 112.716 83.6496 112.267 84.9618C112.109 85.4261 112.021 85.9146 112.003 86.4272C111.993 86.9196 112.118 87.3793 112.378 87.8062C112.624 88.2061 113.061 88.5129 113.687 88.7267C114.07 88.8577 114.515 88.9082 115.021 88.8782C115.514 88.8212 115.931 88.5915 116.271 88.1892C116.444 88.4739 116.533 88.7748 116.538 89.0919C116.522 89.4021 116.462 89.7086 116.359 90.0114C116.104 90.7584 115.628 91.2608 114.931 91.5188C114.221 91.7496 113.522 91.7478 112.836 91.5134C111.645 91.1065 110.919 90.2612 110.659 88.9775C110.399 87.6937 110.579 86.1434 111.199 84.3265C111.923 82.2067 112.989 80.835 114.397 80.2113C115.792 79.5605 117.61 79.6178 119.85 80.3832L125.725 82.39C126.795 82.7555 127.451 82.5849 127.692 81.8783C127.74 81.737 127.755 81.5617 127.737 81.3524C127.705 81.1161 127.608 80.9029 127.448 80.7128C127.671 80.6537 127.88 80.635 128.076 80.6567C128.258 80.6513 128.43 80.6762 128.591 80.7314C129.056 80.89 129.377 81.2364 129.555 81.7707C129.733 82.305 129.712 82.8951 129.491 83.5411ZM124.975 90.7229C125.141 90.171 125.163 89.5471 125.04 88.8513C124.897 88.1486 124.625 87.4585 124.225 86.7809C123.826 86.1033 123.314 85.4889 122.691 84.9378C122.067 84.3868 121.355 83.9632 120.555 83.6672C120.376 84.1246 120.214 84.6328 120.068 85.1916C119.909 85.7234 119.79 86.269 119.712 86.8284C119.64 87.3675 119.626 87.87 119.67 88.3359C119.69 89.267 119.893 90.0579 120.28 90.7084C120.666 91.3589 121.243 91.8152 122.01 92.0772C122.596 92.2772 123.186 92.2984 123.781 92.1409C124.355 91.9765 124.754 91.5039 124.975 90.7229ZM132.189 59.8052C132.257 60.3341 132.135 60.8017 131.822 61.2081C131.509 61.6144 131.099 61.8505 130.591 61.9165C130.062 61.9852 129.595 61.863 129.188 61.5501C128.782 61.2371 128.545 60.8162 128.476 60.2873C128.41 59.7796 128.533 59.3225 128.846 58.9162C129.159 58.5098 129.58 58.2723 130.109 58.2036C130.617 58.1377 131.074 58.2612 131.48 58.5742C131.887 58.8871 132.123 59.2975 132.189 59.8052ZM122.246 31.5124C122.51 31.9259 122.612 32.3421 122.55 32.7611C122.471 33.1916 122.224 33.5389 121.811 33.803L104.623 44.8205L103.217 42.2631L118.032 32.7615C118.553 32.4285 119.058 32.0685 119.544 31.6815C120.031 31.2945 120.445 30.8913 120.784 30.4718C120.961 30.5108 121.193 30.6159 121.479 30.7873C121.772 30.9291 122.028 31.1708 122.246 31.5124ZM109.378 48.5796C109.421 48.8053 109.375 49.05 109.24 49.3137C109.075 49.5709 108.875 49.8125 108.64 50.0387C108.393 50.247 108.157 50.3725 107.931 50.4155C107.687 50.4699 107.508 50.4072 107.393 50.2274L99.2796 37.5257C99.1648 37.3459 99.189 37.1659 99.3523 36.9856C99.4862 36.7989 99.7052 36.6463 100.009 36.528C100.302 36.3917 100.605 36.3118 100.919 36.2884C101.204 36.2584 101.44 36.3104 101.627 36.4442C101.832 37.1229 102.078 37.8645 102.364 38.669C102.621 39.467 102.916 40.2658 103.249 41.0653C103.583 41.8648 103.968 42.6062 104.404 43.2894C104.829 43.9546 105.329 44.5975 105.902 45.2183C106.476 45.8391 107.071 46.4336 107.687 47.002C108.274 47.5638 108.838 48.0897 109.378 48.5796ZM95.0096 27.1025C94.6454 26.8065 94.4332 26.4418 94.3732 26.0082C94.3131 25.5746 94.458 25.1426 94.8077 24.7121L102.027 15.7755C102.403 15.3119 102.623 14.9403 102.685 14.6609C102.717 14.3846 102.617 14.1523 102.385 13.964C102.286 13.8833 102.156 13.8057 101.997 13.7312C101.824 13.6733 101.636 13.6852 101.432 13.7669C101.465 13.354 101.596 13.0068 101.825 12.7254C102.121 12.3611 102.503 12.1774 102.973 12.1743C103.427 12.1577 103.902 12.3512 104.398 12.7547C105.061 13.2928 105.399 13.925 105.414 14.6515C105.398 15.381 105.027 16.1929 104.301 17.087L103.03 18.6517L102.253 18.8458C103.16 17.933 104.108 17.2738 105.097 16.8681C106.073 16.4789 107.045 16.348 108.014 16.4752C108.952 16.6055 109.844 17.0137 110.688 17.6998C112.013 18.7759 112.682 19.9654 112.695 21.2682C112.679 22.5742 111.904 24.1709 110.37 26.0585L106.416 30.9265C106.066 31.357 105.714 31.8408 105.36 32.3779C104.993 32.9316 104.714 33.4609 104.524 33.9659C104.267 33.9773 103.999 33.952 103.72 33.8899C103.41 33.8309 103.106 33.6804 102.808 33.4382C102.428 33.1288 102.209 32.7724 102.152 32.3688C102.078 31.9518 102.203 31.5446 102.526 31.1472L107.893 24.5406C108.714 23.5306 109.312 22.6421 109.687 21.8753C110.049 21.125 110.186 20.4664 110.097 19.8993C109.978 19.3353 109.629 18.8179 109.049 18.3471C108.652 18.0243 108.175 17.8158 107.619 17.7217C107.064 17.6275 106.44 17.6845 105.749 17.8925C105.044 18.1171 104.298 18.528 103.511 19.1251C102.707 19.7088 101.874 20.5305 101.013 21.5902C100.233 22.5505 99.5958 23.352 99.1011 23.9947C98.59 24.6239 98.1813 25.1439 97.875 25.5547C97.5552 25.9821 97.3209 26.3552 97.1719 26.6739C96.9929 26.9958 96.8371 27.3228 96.7047 27.655C96.5246 27.6736 96.2799 27.6534 95.9705 27.5945C95.6611 27.5355 95.3408 27.3715 95.0096 27.1025ZM94.3564 6.45485C94.7553 6.60636 95.0612 6.88232 95.2742 7.28273C95.4797 7.70308 95.4877 8.16255 95.2983 8.66112L91.2416 19.3406C91.0295 19.899 90.9516 20.3144 91.0079 20.5868C91.0366 20.8716 91.2006 21.0708 91.4997 21.1844C91.5994 21.2223 91.7404 21.2416 91.9227 21.2424C92.0974 21.2631 92.2687 21.2026 92.4366 21.061C92.5547 21.471 92.5493 21.8455 92.4205 22.1846C92.2463 22.6433 91.9466 22.9516 91.5215 23.1096C91.0764 23.26 90.5447 23.2178 89.9265 22.983C89.1288 22.6799 88.6304 22.1597 88.4312 21.4223C88.2046 20.6972 88.321 19.7601 88.7803 18.611L89.4394 16.876L89.7756 17.0722C88.9123 18.684 87.9489 19.7785 86.8852 20.3558C85.7941 20.9454 84.6701 21.0205 83.5134 20.5811C82.4764 20.1872 81.7349 19.586 81.2889 18.7776C80.8353 17.9892 80.8017 17.0864 81.188 16.0693C81.4456 15.3912 81.8472 14.9048 82.3928 14.61C82.9383 14.3152 83.4642 14.2525 83.9704 14.422C84.5363 14.6141 84.8959 14.8991 85.0491 15.2767C84.6535 15.5372 84.3728 15.7957 84.2069 16.0522C84.0334 16.3286 83.8823 16.6363 83.7535 16.9754C83.5187 17.5936 83.4878 18.0953 83.661 18.4806C83.8265 18.8858 84.1785 19.1907 84.717 19.3952C85.2355 19.5922 85.815 19.5385 86.4555 19.2341C87.0885 18.9496 87.7415 18.3419 88.4146 17.4109C89.0802 16.4999 89.7349 15.1968 90.3788 13.5017C90.8106 12.3649 91.1705 11.4176 91.4583 10.6598C91.7187 9.91432 91.9336 9.28851 92.103 8.78236C92.2649 8.29615 92.3803 7.87217 92.4493 7.51041C92.5107 7.1686 92.5383 6.82539 92.5323 6.4808C92.6974 6.40659 92.9461 6.35272 93.2783 6.31917C93.5906 6.27806 93.95 6.32328 94.3564 6.45485ZM76.5543 1.01058C77.1934 1.04312 77.6221 1.22514 77.8402 1.55666C78.0359 1.9084 78.1213 2.32928 78.0963 2.81931L77.0567 23.2409C77.052 23.7533 76.8828 24.1399 76.5491 24.4006C76.2154 24.6613 75.8036 24.7791 75.3135 24.7542C74.8874 24.7325 74.5402 24.6294 74.2719 24.4448C74.0025 24.2816 73.8072 24.1328 73.6859 23.9985C73.8419 23.451 73.9531 22.944 74.0196 22.4775C74.0861 22.0109 74.1515 21.5657 74.2158 21.1417C74.2577 20.738 74.29 20.3124 74.3128 19.865C74.3345 19.4389 74.3791 18.9819 74.4467 18.494L74.7829 12.5194L74.9616 12.7848C74.6091 13.8349 74.1257 14.7288 73.5114 15.4666C72.8747 16.2245 72.1189 16.8055 71.2438 17.2095C70.3688 17.6136 69.388 17.7879 68.3014 17.7326C66.9592 17.6643 65.9752 17.2724 65.3494 16.557C64.7236 15.8416 64.4379 14.9513 64.4921 13.886C64.5366 13.0125 64.8004 12.2355 65.2836 11.5552C65.7444 10.8951 66.3287 10.3268 67.0366 9.85013C67.7231 9.37241 68.459 8.97198 69.2445 8.64883C68.9729 8.5282 68.7478 8.33517 68.5691 8.06974C68.3679 7.82453 68.169 7.53671 67.9722 7.20628L66.4313 4.11594C66.2175 3.6992 66.041 3.39116 65.9016 3.19182C65.7398 3.01269 65.5098 2.91554 65.2115 2.90036C65.105 2.89493 64.9654 2.90919 64.7928 2.94312C64.6191 2.99836 64.4539 3.09676 64.2972 3.23831C64.1556 3.08157 64.0572 2.91636 64.002 2.74266C63.9467 2.56896 63.9235 2.39689 63.9321 2.22644C63.9592 1.6938 64.227 1.25885 64.7355 0.921596C65.2216 0.604565 65.7629 0.461234 66.3595 0.491602C66.9347 0.520886 67.448 0.717904 67.8994 1.08266C68.3508 1.44741 68.6981 1.96708 68.9415 2.64165L71.2601 8.07856C71.9325 7.87782 72.5932 7.69784 73.2421 7.53863C73.8686 7.39964 74.4515 7.27978 74.9906 7.17906C75.0373 6.26291 75.0763 5.49591 75.1078 4.87804C75.1381 4.28148 75.1524 3.7909 75.1507 3.40632C75.1265 3.04195 75.0895 2.71965 75.0397 2.43942C74.9675 2.17942 74.8862 1.88691 74.796 1.5619C74.974 1.42143 75.2048 1.29434 75.4882 1.1806C75.7515 1.04448 76.1069 0.987801 76.5543 1.01058ZM74.9288 8.39349C74.0636 8.60577 73.1962 8.86067 72.3266 9.15818C71.4346 9.47591 70.6358 9.85178 69.9302 10.2858C69.2032 10.7187 68.6221 11.2232 68.187 11.7991C67.7294 12.3953 67.4805 13.0876 67.4404 13.8759C67.4003 14.6642 67.5745 15.2284 67.963 15.5686C68.3292 15.929 68.8105 16.1244 69.4071 16.1548C70.4085 16.2058 71.3212 15.8998 72.1453 15.2368C72.947 14.5941 73.5918 13.6763 74.0798 12.4836C74.5666 11.3122 74.8496 9.94881 74.9288 8.39349ZM49.9731 2.52009C52.211 1.88847 54.1942 2.08239 55.9228 3.10186C57.6308 4.12712 58.8615 5.97428 59.6148 8.64334C60.3392 11.2097 60.2735 13.4117 59.4178 15.2492C58.5678 17.1073 56.9315 18.3782 54.5089 19.062C53.4002 19.3749 52.3654 19.4785 51.4046 19.3729C50.4496 19.2878 49.6301 18.976 48.9461 18.4375C48.2474 17.9254 47.7589 17.1766 47.4808 16.1911C47.0462 14.6512 47.3421 13.3042 48.3685 12.15C49.3802 11.0221 50.9536 10.1569 53.0889 9.55422C53.9307 9.31663 54.7709 9.11274 55.6095 8.94255C56.4334 8.79868 57.3026 8.69744 58.2171 8.63885L58.451 9.70332C57.9145 9.76607 57.3194 9.85646 56.6655 9.9745C56.0117 10.0925 55.3431 10.2369 54.6598 10.4076C53.9822 10.5988 53.35 10.8327 52.763 11.1092C52.1818 11.4062 51.6826 11.7577 51.2651 12.1637C50.8535 12.5902 50.5867 13.0978 50.4646 13.6864C50.3221 14.2808 50.3609 14.9681 50.5811 15.7483C50.8013 16.5285 51.1131 17.0833 51.5164 17.4128C51.9197 17.7423 52.3704 17.9255 52.8685 17.9622C53.3518 18.0253 53.8295 17.9902 54.3017 17.8569C55.6157 17.4861 56.508 16.6025 56.9784 15.2062C57.4341 13.8363 57.349 12.0426 56.7231 9.82524C56.2538 8.16221 55.6644 6.89879 54.9551 6.03498C54.2516 5.1917 53.4592 4.66168 52.5778 4.44493C51.6818 4.25451 50.7512 4.29547 49.7863 4.56783C48.6776 4.88074 47.7764 5.37894 47.0826 6.06242C46.3946 6.76642 46.0125 7.57251 45.9364 8.48068C45.7079 8.45651 45.5207 8.34309 45.3748 8.14042C45.229 7.93776 45.1862 7.55081 45.2467 6.97958C45.3702 5.92504 45.8552 5.01233 46.7016 4.24143C47.5481 3.47053 48.6385 2.89675 49.9731 2.52009ZM28.0826 4.45035C28.8551 3.91722 29.6532 3.49613 30.4767 3.18705C31.3002 2.87798 32.0856 2.77663 32.8329 2.88301C33.5506 2.98395 34.1517 3.38559 34.6364 4.08793C34.9877 4.59713 35.1266 5.13636 35.0528 5.70563C34.967 6.25734 34.6519 6.72099 34.1076 7.0966C33.5984 7.44798 33.1267 7.55318 32.6924 7.4122C32.8292 7.08454 32.8655 6.76145 32.8012 6.44293C32.7193 6.13653 32.6118 5.88676 32.4785 5.69361C32.1635 5.23709 31.7949 4.94712 31.3728 4.8237C30.9385 4.68272 30.4886 4.66921 30.0229 4.78319C29.5573 4.89717 29.1225 5.09349 28.7187 5.37217C27.314 6.34149 26.6685 7.6034 26.7821 9.15789C26.8661 10.7069 27.6109 12.4999 29.0164 14.5367C29.2224 14.8352 29.4499 15.1836 29.6989 15.582C29.9424 16.0101 30.186 16.4382 30.4296 16.8663C30.6731 17.2943 30.8924 17.6873 31.0875 18.0451L31.1513 18.701C30.2243 16.982 29.8463 15.3637 30.0172 13.846C30.1828 12.3581 31.003 11.1052 32.4779 10.0874C33.7948 9.17868 35.0743 8.89189 36.3164 9.22704C37.5531 9.59187 38.8682 10.7839 40.2616 12.8031L43.7329 17.8337C44.0601 18.3077 44.4317 18.79 44.8479 19.2804C45.2641 19.7708 45.6878 20.1782 46.1191 20.5027C46.058 20.7522 45.9584 21.0024 45.8204 21.2531C45.677 21.5335 45.4472 21.7828 45.1312 22.0009C44.7273 22.2796 44.3237 22.3896 43.9204 22.331C43.4995 22.2844 43.1437 22.0505 42.8529 21.6291L38.1093 14.7549C37.043 13.2098 36.0886 12.1836 35.2461 11.6763C34.3861 11.1812 33.5259 11.2305 32.6655 11.8242C32.1914 12.1513 31.8224 12.5744 31.5585 13.0935C31.2771 13.6246 31.1392 14.2512 31.1448 14.973C31.145 15.7245 31.3212 16.562 31.6733 17.4854C32.0254 18.4088 32.5831 19.4236 33.3464 20.5298C34.0371 21.5307 34.6153 22.3499 35.0812 22.9874C35.5295 23.6371 35.9018 24.1578 36.198 24.5495C36.5064 24.9588 36.7926 25.2797 37.0567 25.5121C37.3153 25.7743 37.5855 26.0155 37.8672 26.2359C37.8345 26.4139 37.7465 26.6432 37.603 26.9236C37.4596 27.204 37.2123 27.4654 36.8611 27.7077C36.4748 27.9743 36.0651 28.0755 35.6321 28.0115C35.1991 27.9474 34.8251 27.6871 34.5101 27.2306L26.8686 16.2132C25.5963 14.3696 24.8716 12.7183 24.6944 11.2595C24.4875 9.79529 24.7006 8.50777 25.3337 7.39695C25.9547 6.26859 26.871 5.28638 28.0826 4.45035ZM9.72387 31.6831C10.0003 31.227 10.3877 30.9379 10.8858 30.8158C11.3839 30.6937 11.8519 30.7653 12.2897 31.0307C12.7458 31.3072 13.0349 31.6945 13.157 32.1927C13.2792 32.6908 13.202 33.1679 12.9255 33.624C12.6601 34.0618 12.2783 34.3418 11.7802 34.4639C11.282 34.586 10.8049 34.5089 10.3489 34.2324C9.91102 33.967 9.63105 33.5852 9.50892 33.087C9.3868 32.5889 9.45845 32.1209 9.72387 31.6831Z" fill="#F1C953"/>
</svg>
