<svg width="133" height="19" viewBox="0 0 133 19" fill="none" xmlns="http://www.w3.org/2000/svg">
<path d="M1.77778 18.5C1.28889 18.5 0.87037 18.3237 0.522222 17.9713C0.174074 17.6187 0 17.195 0 16.7V4.1C0 3.605 0.174074 3.18125 0.522222 2.82875C0.87037 2.47625 1.28889 2.3 1.77778 2.3H2.66667V1.4C2.66667 1.145 2.75185 0.93125 2.92222 0.75875C3.09259 0.58625 3.3037 0.5 3.55556 0.5C3.80741 0.5 4.01852 0.58625 4.18889 0.75875C4.35926 0.93125 4.44444 1.145 4.44444 1.4V2.3H11.5556V1.4C11.5556 1.145 11.6407 0.93125 11.8111 0.75875C11.9815 0.58625 12.1926 0.5 12.4444 0.5C12.6963 0.5 12.9074 0.58625 13.0778 0.75875C13.2481 0.93125 13.3333 1.145 13.3333 1.4V2.3H14.2222C14.7111 2.3 15.1296 2.47625 15.4778 2.82875C15.8259 3.18125 16 3.605 16 4.1V16.7C16 17.195 15.8259 17.6187 15.4778 17.9713C15.1296 18.3237 14.7111 18.5 14.2222 18.5H1.77778ZM1.77778 16.7H14.2222V7.7H1.77778V16.7ZM1.77778 5.9H14.2222V4.1H1.77778V5.9ZM8 11.3C7.74815 11.3 7.53704 11.2137 7.36667 11.0413C7.1963 10.8688 7.11111 10.655 7.11111 10.4C7.11111 10.145 7.1963 9.93125 7.36667 9.75875C7.53704 9.58625 7.74815 9.5 8 9.5C8.25185 9.5 8.46296 9.58625 8.63333 9.75875C8.8037 9.93125 8.88889 10.145 8.88889 10.4C8.88889 10.655 8.8037 10.8688 8.63333 11.0413C8.46296 11.2137 8.25185 11.3 8 11.3ZM4.44444 11.3C4.19259 11.3 3.98148 11.2137 3.81111 11.0413C3.64074 10.8688 3.55556 10.655 3.55556 10.4C3.55556 10.145 3.64074 9.93125 3.81111 9.75875C3.98148 9.58625 4.19259 9.5 4.44444 9.5C4.6963 9.5 4.90741 9.58625 5.07778 9.75875C5.24815 9.93125 5.33333 10.145 5.33333 10.4C5.33333 10.655 5.24815 10.8688 5.07778 11.0413C4.90741 11.2137 4.6963 11.3 4.44444 11.3ZM11.5556 11.3C11.3037 11.3 11.0926 11.2137 10.9222 11.0413C10.7519 10.8688 10.6667 10.655 10.6667 10.4C10.6667 10.145 10.7519 9.93125 10.9222 9.75875C11.0926 9.58625 11.3037 9.5 11.5556 9.5C11.8074 9.5 12.0185 9.58625 12.1889 9.75875C12.3593 9.93125 12.4444 10.145 12.4444 10.4C12.4444 10.655 12.3593 10.8688 12.1889 11.0413C12.0185 11.2137 11.8074 11.3 11.5556 11.3ZM8 14.9C7.74815 14.9 7.53704 14.8138 7.36667 14.6413C7.1963 14.4688 7.11111 14.255 7.11111 14C7.11111 13.745 7.1963 13.5312 7.36667 13.3588C7.53704 13.1862 7.74815 13.1 8 13.1C8.25185 13.1 8.46296 13.1862 8.63333 13.3588C8.8037 13.5312 8.88889 13.745 8.88889 14C8.88889 14.255 8.8037 14.4688 8.63333 14.6413C8.46296 14.8138 8.25185 14.9 8 14.9ZM4.44444 14.9C4.19259 14.9 3.98148 14.8138 3.81111 14.6413C3.64074 14.4688 3.55556 14.255 3.55556 14C3.55556 13.745 3.64074 13.5312 3.81111 13.3588C3.98148 13.1862 4.19259 13.1 4.44444 13.1C4.6963 13.1 4.90741 13.1862 5.07778 13.3588C5.24815 13.5312 5.33333 13.745 5.33333 14C5.33333 14.255 5.24815 14.4688 5.07778 14.6413C4.90741 14.8138 4.6963 14.9 4.44444 14.9ZM11.5556 14.9C11.3037 14.9 11.0926 14.8138 10.9222 14.6413C10.7519 14.4688 10.6667 14.255 10.6667 14C10.6667 13.745 10.7519 13.5312 10.9222 13.3588C11.0926 13.1862 11.3037 13.1 11.5556 13.1C11.8074 13.1 12.0185 13.1862 12.1889 13.3588C12.3593 13.5312 12.4444 13.745 12.4444 14C12.4444 14.255 12.3593 14.4688 12.1889 14.6413C12.0185 14.8138 11.8074 14.9 11.5556 14.9Z" fill="#4EA487"/>
<path d="M23.584 16V5.12H27.248C28.9227 5.12 30.1333 5.64267 30.88 6.688C31.6267 7.73333 32 9.00267 32 10.496C32 12.0533 31.584 13.36 30.752 14.416C29.9307 15.472 28.7253 16 27.136 16H23.584ZM27.296 6.208H24.848V14.944H27.152C28.2293 14.944 29.0987 14.5547 29.76 13.776C30.4213 12.9973 30.752 11.9093 30.752 10.512C30.752 9.264 30.4693 8.23467 29.904 7.424C29.3387 6.61333 28.4693 6.208 27.296 6.208ZM35.109 13.792C35.109 14.1227 35.221 14.4373 35.445 14.736C35.6797 15.0347 36.053 15.184 36.565 15.184C37.013 15.184 37.4237 15.072 37.797 14.848C38.1703 14.624 38.4903 14.3573 38.757 14.048V12.272H36.709C36.1863 12.272 35.7863 12.4267 35.509 12.736C35.2423 13.0347 35.109 13.3867 35.109 13.792ZM34.437 8.72C34.7357 8.51733 35.157 8.352 35.701 8.224C36.245 8.096 36.677 8.032 36.997 8.032C37.893 8.032 38.6183 8.27733 39.173 8.768C39.7383 9.248 40.021 9.87733 40.021 10.656V16H39.253L38.917 15.216C38.6503 15.4613 38.3037 15.6853 37.877 15.888C37.4503 16.0907 37.0237 16.192 36.597 16.192C35.701 16.192 35.0343 15.968 34.597 15.52C34.1597 15.0613 33.941 14.4853 33.941 13.792C33.941 13.024 34.197 12.4427 34.709 12.048C35.2317 11.6427 35.909 11.44 36.741 11.44H38.741C38.741 10.8 38.6397 10.256 38.437 9.808C38.2343 9.36 37.7703 9.136 37.045 9.136C36.5223 9.136 36.0903 9.19467 35.749 9.312C35.4077 9.42933 35.093 9.552 34.805 9.68C34.7517 9.52 34.693 9.36 34.629 9.2C34.565 9.04 34.501 8.88 34.437 8.72ZM45.9555 15.968C45.8382 16.0213 45.6675 16.08 45.4435 16.144C45.2302 16.208 45.0062 16.24 44.7715 16.24C44.1102 16.24 43.5768 16.048 43.1715 15.664C42.7768 15.28 42.5795 14.72 42.5795 13.984V9.328H41.4755L41.4595 8.368H42.5795V6.4L43.8595 6.032V8.368H45.2675L45.6835 9.328H43.8595V13.808C43.8595 14.2027 43.9448 14.528 44.1155 14.784C44.2862 15.0293 44.5688 15.152 44.9635 15.152C45.0808 15.152 45.2088 15.136 45.3475 15.104C45.4862 15.0613 45.5928 15.024 45.6675 14.992L45.9555 15.968ZM54.1186 12.32H48.4866C48.5186 13.1413 48.7373 13.824 49.1426 14.368C49.548 14.9013 50.188 15.168 51.0626 15.168C51.5853 15.168 52.0066 15.1147 52.3266 15.008C52.6573 14.8907 52.972 14.7627 53.2706 14.624L53.6706 15.552C53.34 15.776 52.908 15.936 52.3746 16.032C51.8413 16.1387 51.4146 16.192 51.0946 16.192C49.804 16.192 48.828 15.8133 48.1666 15.056C47.5053 14.288 47.1746 13.3013 47.1746 12.096C47.1853 10.9227 47.5 9.952 48.1186 9.184C48.748 8.416 49.6386 8.032 50.7906 8.032C51.996 8.032 52.8493 8.45867 53.3506 9.312C53.8626 10.1547 54.1186 11.1573 54.1186 12.32ZM52.8706 11.456C52.7853 10.7627 52.5773 10.1973 52.2466 9.76C51.916 9.32267 51.4146 9.104 50.7426 9.104C50.0706 9.104 49.548 9.32267 49.1746 9.76C48.812 10.1973 48.5933 10.7627 48.5186 11.456H52.8706ZM55.9318 8.688C56.1771 8.688 56.3798 8.77867 56.5398 8.96C56.7104 9.13067 56.7958 9.33333 56.7958 9.568C56.7958 9.80267 56.7104 10.0053 56.5398 10.176C56.3798 10.3467 56.1771 10.432 55.9318 10.432C55.6971 10.432 55.4944 10.3467 55.3238 10.176C55.1531 10.0053 55.0678 9.80267 55.0678 9.568C55.0678 9.33333 55.1531 9.13067 55.3238 8.96C55.4944 8.77867 55.6971 8.688 55.9318 8.688ZM55.9318 13.84C56.1771 13.84 56.3798 13.9253 56.5398 14.096C56.7104 14.256 56.7958 14.4587 56.7958 14.704C56.7958 14.9493 56.7104 15.1573 56.5398 15.328C56.3798 15.488 56.1771 15.568 55.9318 15.568C55.6971 15.568 55.4944 15.488 55.3238 15.328C55.1531 15.1573 55.0678 14.9493 55.0678 14.704C55.0678 14.4587 55.1531 14.256 55.3238 14.096C55.4944 13.9253 55.6971 13.84 55.9318 13.84ZM64.4445 6.736C65.6072 6.736 66.4178 7.03467 66.8765 7.632C67.3458 8.22933 67.5805 8.84267 67.5805 9.472C67.5805 10.08 67.3832 10.6453 66.9885 11.168C66.5938 11.68 66.0125 12.272 65.2445 12.944L62.8925 15.008H67.7405L67.9005 16H61.3085V15.056L64.5565 12.112C65.2285 11.504 65.6925 11.0187 65.9485 10.656C66.2045 10.2827 66.3325 9.888 66.3325 9.472C66.3325 8.98133 66.1725 8.576 65.8525 8.256C65.5325 7.936 65.0525 7.776 64.4125 7.776C63.9112 7.776 63.4312 7.904 62.9725 8.16C62.5245 8.416 62.2952 8.54933 62.2845 8.56L61.7245 7.648C61.8098 7.59467 62.0978 7.42933 62.5885 7.152C63.0898 6.87467 63.7085 6.736 64.4445 6.736ZM76.6708 12.912C76.6708 13.7653 76.3721 14.528 75.7748 15.2C75.1774 15.872 74.3988 16.208 73.4388 16.208C72.3294 16.208 71.4228 15.8347 70.7188 15.088C70.0148 14.3413 69.6628 13.2533 69.6628 11.824C69.6628 10.6507 70.0948 9.43467 70.9588 8.176C71.8228 6.90667 72.9428 6.13333 74.3188 5.856L74.8468 6.64C73.8974 6.864 73.0814 7.36533 72.3988 8.144C71.7161 8.912 71.2734 9.76 71.0707 10.688C71.3588 10.432 71.7054 10.208 72.1108 10.016C72.5268 9.824 72.9588 9.728 73.4068 9.728C74.4094 9.728 75.2041 10.0533 75.7908 10.704C76.3774 11.344 76.6708 12.08 76.6708 12.912ZM75.4708 12.992C75.4708 12.4053 75.2841 11.8773 74.9108 11.408C74.5374 10.9387 74.0308 10.704 73.3908 10.704C72.8148 10.704 72.3081 10.8533 71.8708 11.152C71.4441 11.44 71.1294 11.7653 70.9268 12.128C70.9588 13.0347 71.1774 13.7653 71.5828 14.32C71.9881 14.8747 72.5908 15.152 73.3908 15.152C74.0201 15.152 74.5214 14.9333 74.8948 14.496C75.2788 14.048 75.4708 13.5467 75.4708 12.992ZM78.5415 14.288C78.7762 14.288 78.9735 14.3733 79.1335 14.544C79.3042 14.704 79.3895 14.9013 79.3895 15.136C79.3895 15.3813 79.3042 15.5893 79.1335 15.76C78.9735 15.92 78.7762 16 78.5415 16C78.2962 16 78.0882 15.92 77.9175 15.76C77.7468 15.5893 77.6615 15.3813 77.6615 15.136C77.6615 14.9013 77.7468 14.704 77.9175 14.544C78.0882 14.3733 78.2962 14.288 78.5415 14.288ZM80.569 11.408C80.569 9.95733 80.9317 8.816 81.657 7.984C82.3823 7.152 83.3263 6.736 84.489 6.736C85.6517 6.736 86.5903 7.14133 87.305 7.952C88.0197 8.752 88.377 9.89867 88.377 11.392C88.377 12.8427 88.009 14.0107 87.273 14.896C86.537 15.7707 85.609 16.208 84.489 16.208C83.3477 16.208 82.409 15.7813 81.673 14.928C80.937 14.0747 80.569 12.9013 80.569 11.408ZM81.833 11.36C81.833 12.544 82.0837 13.4667 82.585 14.128C83.0863 14.7893 83.721 15.12 84.489 15.12C85.225 15.12 85.849 14.7893 86.361 14.128C86.873 13.4667 87.129 12.5707 87.129 11.44C87.129 10.2667 86.8783 9.37067 86.377 8.752C85.8863 8.12267 85.257 7.808 84.489 7.808C83.7317 7.808 83.097 8.12267 82.585 8.752C82.0837 9.37067 81.833 10.24 81.833 11.36ZM94.8474 16H90.5114L90.3674 15.04H92.0794V8.464C91.898 8.592 91.7114 8.72 91.5194 8.848C91.338 8.96533 91.1567 9.08267 90.9754 9.2C90.8687 9.06133 90.7674 8.91733 90.6714 8.768C90.5754 8.61867 90.4794 8.47467 90.3834 8.336L92.5114 6.944H93.3594V15.04H94.7194C94.7407 15.2107 94.762 15.376 94.7834 15.536C94.8154 15.6853 94.8367 15.84 94.8474 16ZM96.8071 14.288C97.0418 14.288 97.2391 14.3733 97.3991 14.544C97.5698 14.704 97.6551 14.9013 97.6551 15.136C97.6551 15.3813 97.5698 15.5893 97.3991 15.76C97.2391 15.92 97.0418 16 96.8071 16C96.5618 16 96.3538 15.92 96.1831 15.76C96.0125 15.5893 95.9271 15.3813 95.9271 15.136C95.9271 14.9013 96.0125 14.704 96.1831 14.544C96.3538 14.3733 96.5618 14.288 96.8071 14.288ZM101.523 6.736C102.685 6.736 103.496 7.03467 103.955 7.632C104.424 8.22933 104.659 8.84267 104.659 9.472C104.659 10.08 104.461 10.6453 104.067 11.168C103.672 11.68 103.091 12.272 102.323 12.944L99.9706 15.008H104.819L104.979 16H98.3866V15.056L101.635 12.112C102.307 11.504 102.771 11.0187 103.027 10.656C103.283 10.2827 103.411 9.888 103.411 9.472C103.411 8.98133 103.251 8.576 102.931 8.256C102.611 7.936 102.131 7.776 101.491 7.776C100.989 7.776 100.509 7.904 100.051 8.16C99.6026 8.416 99.3733 8.54933 99.3626 8.56L98.8026 7.648C98.888 7.59467 99.176 7.42933 99.6666 7.152C100.168 6.87467 100.787 6.736 101.523 6.736ZM106.741 11.408C106.741 9.95733 107.104 8.816 107.829 7.984C108.554 7.152 109.498 6.736 110.661 6.736C111.824 6.736 112.762 7.14133 113.477 7.952C114.192 8.752 114.549 9.89867 114.549 11.392C114.549 12.8427 114.181 14.0107 113.445 14.896C112.709 15.7707 111.781 16.208 110.661 16.208C109.52 16.208 108.581 15.7813 107.845 14.928C107.109 14.0747 106.741 12.9013 106.741 11.408ZM108.005 11.36C108.005 12.544 108.256 13.4667 108.757 14.128C109.258 14.7893 109.893 15.12 110.661 15.12C111.397 15.12 112.021 14.7893 112.533 14.128C113.045 13.4667 113.301 12.5707 113.301 11.44C113.301 10.2667 113.05 9.37067 112.549 8.752C112.058 8.12267 111.429 7.808 110.661 7.808C109.904 7.808 109.269 8.12267 108.757 8.752C108.256 9.37067 108.005 10.24 108.005 11.36ZM119.163 6.736C120.326 6.736 121.137 7.03467 121.595 7.632C122.065 8.22933 122.299 8.84267 122.299 9.472C122.299 10.08 122.102 10.6453 121.707 11.168C121.313 11.68 120.731 12.272 119.963 12.944L117.611 15.008H122.459L122.619 16H116.027V15.056L119.275 12.112C119.947 11.504 120.411 11.0187 120.667 10.656C120.923 10.2827 121.051 9.888 121.051 9.472C121.051 8.98133 120.891 8.576 120.571 8.256C120.251 7.936 119.771 7.776 119.131 7.776C118.63 7.776 118.15 7.904 117.691 8.16C117.243 8.416 117.014 8.54933 117.003 8.56L116.443 7.648C116.529 7.59467 116.817 7.42933 117.307 7.152C117.809 6.87467 118.427 6.736 119.163 6.736ZM131.39 12.912C131.39 13.7653 131.091 14.528 130.494 15.2C129.896 15.872 129.118 16.208 128.158 16.208C127.048 16.208 126.142 15.8347 125.438 15.088C124.734 14.3413 124.382 13.2533 124.382 11.824C124.382 10.6507 124.814 9.43467 125.678 8.176C126.542 6.90667 127.662 6.13333 129.038 5.856L129.566 6.64C128.616 6.864 127.8 7.36533 127.118 8.144C126.435 8.912 125.992 9.76 125.789 10.688C126.078 10.432 126.424 10.208 126.83 10.016C127.246 9.824 127.678 9.728 128.126 9.728C129.128 9.728 129.923 10.0533 130.51 10.704C131.096 11.344 131.39 12.08 131.39 12.912ZM130.19 12.992C130.19 12.4053 130.003 11.8773 129.63 11.408C129.256 10.9387 128.75 10.704 128.11 10.704C127.534 10.704 127.027 10.8533 126.59 11.152C126.163 11.44 125.848 11.7653 125.646 12.128C125.678 13.0347 125.896 13.7653 126.302 14.32C126.707 14.8747 127.31 15.152 128.11 15.152C128.739 15.152 129.24 14.9333 129.614 14.496C129.998 14.048 130.19 13.5467 130.19 12.992Z" fill="#54370D"/>
</svg>
