<svg width="92" height="19" viewBox="0 0 92 19" fill="none" xmlns="http://www.w3.org/2000/svg">
<path d="M10 13.7C11.1655 13.7 12.1562 13.2917 12.972 12.475C13.7879 11.6583 14.1958 10.6667 14.1958 9.5C14.1958 8.33333 13.7879 7.34167 12.972 6.525C12.1562 5.70833 11.1655 5.3 10 5.3C8.8345 5.3 7.84382 5.70833 7.02797 6.525C6.21212 7.34167 5.8042 8.33333 5.8042 9.5C5.8042 10.6667 6.21212 11.6583 7.02797 12.475C7.84382 13.2917 8.8345 13.7 10 13.7ZM10 12.02C9.3007 12.02 8.70629 11.775 8.21678 11.285C7.72727 10.795 7.48252 10.2 7.48252 9.5C7.48252 8.8 7.72727 8.205 8.21678 7.715C8.70629 7.225 9.3007 6.98 10 6.98C10.6993 6.98 11.2937 7.225 11.7832 7.715C12.2727 8.205 12.5175 8.8 12.5175 9.5C12.5175 10.2 12.2727 10.795 11.7832 11.285C11.2937 11.775 10.6993 12.02 10 12.02ZM10 16.5C7.91764 16.5 6.01787 15.94 4.3007 14.82C2.58353 13.7 1.22766 12.2222 0.2331 10.3867C0.1554 10.2467 0.0971251 10.1028 0.0582751 9.955C0.019425 9.80722 0 9.65556 0 9.5C0 9.34444 0.019425 9.19278 0.0582751 9.045C0.0971251 8.89722 0.1554 8.75333 0.2331 8.61333C1.22766 6.77778 2.58353 5.3 4.3007 4.18C6.01787 3.06 7.91764 2.5 10 2.5C12.0824 2.5 13.9821 3.06 15.6993 4.18C17.4165 5.3 18.7723 6.77778 19.7669 8.61333C19.8446 8.75333 19.9029 8.89722 19.9417 9.045C19.9806 9.19278 20 9.34444 20 9.5C20 9.65556 19.9806 9.80722 19.9417 9.955C19.9029 10.1028 19.8446 10.2467 19.7669 10.3867C18.7723 12.2222 17.4165 13.7 15.6993 14.82C13.9821 15.94 12.0824 16.5 10 16.5ZM10 14.6333C11.756 14.6333 13.3683 14.1706 14.8368 13.245C16.3054 12.3194 17.4281 11.0711 18.2051 9.5C17.4281 7.92889 16.3054 6.68056 14.8368 5.755C13.3683 4.82944 11.756 4.36667 10 4.36667C8.24398 4.36667 6.6317 4.82944 5.16317 5.755C3.69464 6.68056 2.57187 7.92889 1.79487 9.5C2.57187 11.0711 3.69464 12.3194 5.16317 13.245C6.6317 14.1706 8.24398 14.6333 10 14.6333Z" fill="#4EA487"/>
<path d="M30.56 6.192H28.848V10.496H30.448C31.216 10.496 31.8773 10.3413 32.432 10.032C32.9867 9.72267 33.264 9.15733 33.264 8.336C33.264 7.48267 33.0133 6.912 32.512 6.624C32.0107 6.336 31.36 6.192 30.56 6.192ZM34.032 16L31.52 11.472C31.3387 11.4933 31.152 11.5093 30.96 11.52C30.7787 11.5307 30.5867 11.536 30.384 11.536H28.848V16H27.6V5.12H30.56C31.7013 5.12 32.656 5.36533 33.424 5.856C34.192 6.336 34.576 7.14667 34.576 8.288C34.5653 9.024 34.3787 9.62667 34.016 10.096C33.664 10.5547 33.2053 10.9013 32.64 11.136L35.424 16H34.032ZM43.8218 12.32H38.1898C38.2218 13.1413 38.4404 13.824 38.8458 14.368C39.2511 14.9013 39.8911 15.168 40.7658 15.168C41.2884 15.168 41.7098 15.1147 42.0298 15.008C42.3604 14.8907 42.6751 14.7627 42.9738 14.624L43.3738 15.552C43.0431 15.776 42.6111 15.936 42.0778 16.032C41.5444 16.1387 41.1178 16.192 40.7977 16.192C39.5071 16.192 38.5311 15.8133 37.8698 15.056C37.2084 14.288 36.8778 13.3013 36.8778 12.096C36.8884 10.9227 37.2031 9.952 37.8218 9.184C38.4511 8.416 39.3418 8.032 40.4938 8.032C41.6991 8.032 42.5524 8.45867 43.0538 9.312C43.5658 10.1547 43.8218 11.1573 43.8218 12.32ZM42.5738 11.456C42.4884 10.7627 42.2804 10.1973 41.9498 9.76C41.6191 9.32267 41.1178 9.104 40.4458 9.104C39.7738 9.104 39.2511 9.32267 38.8778 9.76C38.5151 10.1973 38.2964 10.7627 38.2218 11.456H42.5738ZM46.5309 13.792C46.5309 14.1227 46.6429 14.4373 46.8669 14.736C47.1015 15.0347 47.4749 15.184 47.9869 15.184C48.4349 15.184 48.8455 15.072 49.2189 14.848C49.5922 14.624 49.9122 14.3573 50.1789 14.048V12.272H48.1309C47.6082 12.272 47.2082 12.4267 46.9309 12.736C46.6642 13.0347 46.5309 13.3867 46.5309 13.792ZM45.8589 8.72C46.1575 8.51733 46.5789 8.352 47.1229 8.224C47.6669 8.096 48.0989 8.032 48.4189 8.032C49.3149 8.032 50.0402 8.27733 50.5949 8.768C51.1602 9.248 51.4429 9.87733 51.4429 10.656V16H50.6749L50.3389 15.216C50.0722 15.4613 49.7255 15.6853 49.2989 15.888C48.8722 16.0907 48.4455 16.192 48.0189 16.192C47.1229 16.192 46.4562 15.968 46.0189 15.52C45.5815 15.0613 45.3629 14.4853 45.3629 13.792C45.3629 13.024 45.6189 12.4427 46.1309 12.048C46.6535 11.6427 47.3309 11.44 48.1629 11.44H50.1629C50.1629 10.8 50.0615 10.256 49.8589 9.808C49.6562 9.36 49.1922 9.136 48.4669 9.136C47.9442 9.136 47.5122 9.19467 47.1709 9.312C46.8295 9.42933 46.5149 9.552 46.2269 9.68C46.1735 9.52 46.1149 9.36 46.0509 9.2C45.9869 9.04 45.9229 8.88 45.8589 8.72ZM56.9934 9.088C56.1507 9.088 55.5534 9.38667 55.2014 9.984C54.86 10.5707 54.6894 11.28 54.6894 12.112C54.6894 12.976 54.86 13.696 55.2014 14.272C55.5427 14.8373 56.14 15.12 56.9934 15.12C57.292 15.12 57.612 15.0507 57.9534 14.912C58.2947 14.7627 58.6147 14.5547 58.9134 14.288V9.936C58.6147 9.66933 58.2947 9.46133 57.9534 9.312C57.612 9.16267 57.292 9.088 56.9934 9.088ZM60.1934 4.72V16H59.4414L59.1054 15.296C58.7747 15.5627 58.396 15.7813 57.9694 15.952C57.5534 16.1227 57.1534 16.208 56.7694 16.208C55.6387 16.208 54.7907 15.824 54.2254 15.056C53.6707 14.2773 53.3934 13.3013 53.3934 12.128C53.3934 10.9333 53.676 9.952 54.2414 9.184C54.8174 8.40533 55.6707 8.016 56.8014 8.016C57.132 8.016 57.4894 8.09067 57.8734 8.24C58.2574 8.37867 58.604 8.56533 58.9134 8.8V4.864L60.1934 4.72ZM62.5568 8.688C62.8021 8.688 63.0048 8.77867 63.1648 8.96C63.3354 9.13067 63.4208 9.33333 63.4208 9.568C63.4208 9.80267 63.3354 10.0053 63.1648 10.176C63.0048 10.3467 62.8021 10.432 62.5568 10.432C62.3221 10.432 62.1194 10.3467 61.9488 10.176C61.7781 10.0053 61.6928 9.80267 61.6928 9.568C61.6928 9.33333 61.7781 9.13067 61.9488 8.96C62.1194 8.77867 62.3221 8.688 62.5568 8.688ZM62.5568 13.84C62.8021 13.84 63.0048 13.9253 63.1648 14.096C63.3354 14.256 63.4208 14.4587 63.4208 14.704C63.4208 14.9493 63.3354 15.1573 63.1648 15.328C63.0048 15.488 62.8021 15.568 62.5568 15.568C62.3221 15.568 62.1194 15.488 61.9488 15.328C61.7781 15.1573 61.6928 14.9493 61.6928 14.704C61.6928 14.4587 61.7781 14.256 61.9488 14.096C62.1194 13.9253 62.3221 13.84 62.5568 13.84ZM72.9255 16H68.5895L68.4455 15.04H70.1575V8.464C69.9762 8.592 69.7895 8.72 69.5975 8.848C69.4162 8.96533 69.2348 9.08267 69.0535 9.2C68.9468 9.06133 68.8455 8.91733 68.7495 8.768C68.6535 8.61867 68.5575 8.47467 68.4615 8.336L70.5895 6.944H71.4375V15.04H72.7975C72.8188 15.2107 72.8402 15.376 72.8615 15.536C72.8935 15.6853 72.9148 15.84 72.9255 16ZM81.7333 12.912C81.7333 13.7653 81.4346 14.528 80.8373 15.2C80.2399 15.872 79.4613 16.208 78.5013 16.208C77.3919 16.208 76.4853 15.8347 75.7812 15.088C75.0773 14.3413 74.7253 13.2533 74.7253 11.824C74.7253 10.6507 75.1573 9.43467 76.0213 8.176C76.8853 6.90667 78.0053 6.13333 79.3813 5.856L79.9093 6.64C78.9599 6.864 78.1439 7.36533 77.4613 8.144C76.7786 8.912 76.3359 9.76 76.1332 10.688C76.4213 10.432 76.7679 10.208 77.1733 10.016C77.5893 9.824 78.0213 9.728 78.4693 9.728C79.4719 9.728 80.2666 10.0533 80.8533 10.704C81.4399 11.344 81.7333 12.08 81.7333 12.912ZM80.5333 12.992C80.5333 12.4053 80.3466 11.8773 79.9733 11.408C79.5999 10.9387 79.0933 10.704 78.4533 10.704C77.8773 10.704 77.3706 10.8533 76.9333 11.152C76.5066 11.44 76.1919 11.7653 75.9893 12.128C76.0213 13.0347 76.2399 13.7653 76.6453 14.32C77.0506 14.8747 77.6533 15.152 78.4533 15.152C79.0826 15.152 79.5839 14.9333 79.9573 14.496C80.3413 14.048 80.5333 13.5467 80.5333 12.992ZM90.756 14.88H89.236V17.104H87.956V14.88H83.172L82.996 13.84L88.356 6.864H89.236V13.84H90.9L90.756 14.88ZM84.356 13.84H87.956V9.072L84.356 13.84Z" fill="#54370D"/>
</svg>
