<svg width="162" height="20" viewBox="0 0 162 20" fill="none" xmlns="http://www.w3.org/2000/svg">
<path d="M4.27062 13C3.65833 13 3.108 12.8031 2.61963 12.4094C2.13126 12.0156 1.82147 11.5125 1.69027 10.9L1.05611 7.96875H0.968644C0.720814 7.99792 0.505785 7.93229 0.323556 7.77188C0.141328 7.61146 0.0356357 7.40729 0.00647923 7.15938C-0.0226773 6.91146 0.0465694 6.7 0.214219 6.525C0.381869 6.35 0.58961 6.24792 0.83744 6.21875C1.74129 6.14583 2.52852 6.09115 3.19912 6.05469C3.86972 6.01823 4.482 6 5.03598 6C5.98357 6 6.74892 6.04375 7.33205 6.13125C7.91518 6.21875 8.44 6.37188 8.90651 6.59062C9.1106 6.69271 9.30376 6.76562 9.48599 6.80937C9.66822 6.85313 9.83951 6.875 9.99988 6.875C10.1602 6.875 10.317 6.85313 10.47 6.80937C10.6231 6.76562 10.8017 6.7 11.0058 6.6125C11.4869 6.39375 12.0408 6.23698 12.6677 6.14219C13.2946 6.0474 14.1255 6 15.1606 6C15.8312 6 16.5382 6.01823 17.2817 6.05469C18.0252 6.09115 18.6594 6.13854 19.1842 6.19688C19.432 6.22604 19.6361 6.32812 19.7965 6.50313C19.9568 6.67812 20.0224 6.88958 19.9933 7.1375C19.9641 7.38542 19.8621 7.58958 19.6871 7.75C19.5122 7.91042 19.3008 7.97604 19.053 7.94688H18.9655L18.3095 10.9219C18.1783 11.5344 17.8721 12.0339 17.3911 12.4203C16.91 12.8068 16.3633 13 15.751 13H13.8048C13.1925 13 12.6531 12.8141 12.1866 12.4422C11.7201 12.0703 11.414 11.5927 11.2682 11.0094L10.6778 8.66875H9.34385L8.75343 11.0094C8.59307 11.6073 8.27964 12.0885 7.81314 12.4531C7.34663 12.8177 6.81453 13 6.21682 13H4.27062ZM3.39592 10.55C3.43966 10.7542 3.54171 10.9219 3.70207 11.0531C3.86243 11.1844 4.04466 11.25 4.24875 11.25H6.19495C6.39905 11.25 6.58127 11.188 6.74163 11.0641C6.902 10.9401 7.00404 10.7833 7.04778 10.5938L7.72567 7.94688C7.33205 7.87396 6.88742 7.82656 6.39176 7.80469C5.8961 7.78281 5.44417 7.77188 5.03598 7.77188C4.70068 7.77188 4.33987 7.77552 3.95354 7.78281C3.56722 7.7901 3.20641 7.80833 2.87111 7.8375L3.39592 10.55ZM12.952 10.5938C12.9957 10.7833 13.0978 10.9401 13.2581 11.0641C13.4185 11.188 13.6007 11.25 13.8048 11.25H15.751C15.9551 11.25 16.1373 11.1844 16.2977 11.0531C16.458 10.9219 16.5601 10.7542 16.6038 10.55L17.1724 7.81563C16.8808 7.80104 16.5455 7.7901 16.1665 7.78281C15.7874 7.77552 15.4521 7.77188 15.1606 7.77188C14.7232 7.77188 14.2385 7.78281 13.7064 7.80469C13.1743 7.82656 12.6969 7.87396 12.2741 7.94688L12.952 10.5938Z" fill="#4EA487"/>
<path d="M30.56 6.192H28.848V10.496H30.448C31.216 10.496 31.8773 10.3413 32.432 10.032C32.9867 9.72267 33.264 9.15733 33.264 8.336C33.264 7.48267 33.0133 6.912 32.512 6.624C32.0107 6.336 31.36 6.192 30.56 6.192ZM34.032 16L31.52 11.472C31.3387 11.4933 31.152 11.5093 30.96 11.52C30.7787 11.5307 30.5867 11.536 30.384 11.536H28.848V16H27.6V5.12H30.56C31.7013 5.12 32.656 5.36533 33.424 5.856C34.192 6.336 34.576 7.14667 34.576 8.288C34.5653 9.024 34.3787 9.62667 34.016 10.096C33.664 10.5547 33.2053 10.9013 32.64 11.136L35.424 16H34.032ZM43.8218 12.32H38.1898C38.2218 13.1413 38.4404 13.824 38.8458 14.368C39.2511 14.9013 39.8911 15.168 40.7658 15.168C41.2884 15.168 41.7098 15.1147 42.0298 15.008C42.3604 14.8907 42.6751 14.7627 42.9738 14.624L43.3738 15.552C43.0431 15.776 42.6111 15.936 42.0778 16.032C41.5444 16.1387 41.1178 16.192 40.7977 16.192C39.5071 16.192 38.5311 15.8133 37.8698 15.056C37.2084 14.288 36.8778 13.3013 36.8778 12.096C36.8884 10.9227 37.2031 9.952 37.8218 9.184C38.4511 8.416 39.3418 8.032 40.4938 8.032C41.6991 8.032 42.5524 8.45867 43.0538 9.312C43.5658 10.1547 43.8218 11.1573 43.8218 12.32ZM42.5738 11.456C42.4884 10.7627 42.2804 10.1973 41.9498 9.76C41.6191 9.32267 41.1178 9.104 40.4458 9.104C39.7738 9.104 39.2511 9.32267 38.8778 9.76C38.5151 10.1973 38.2964 10.7627 38.2218 11.456H42.5738ZM46.5309 13.792C46.5309 14.1227 46.6429 14.4373 46.8669 14.736C47.1015 15.0347 47.4749 15.184 47.9869 15.184C48.4349 15.184 48.8455 15.072 49.2189 14.848C49.5922 14.624 49.9122 14.3573 50.1789 14.048V12.272H48.1309C47.6082 12.272 47.2082 12.4267 46.9309 12.736C46.6642 13.0347 46.5309 13.3867 46.5309 13.792ZM45.8589 8.72C46.1575 8.51733 46.5789 8.352 47.1229 8.224C47.6669 8.096 48.0989 8.032 48.4189 8.032C49.3149 8.032 50.0402 8.27733 50.5949 8.768C51.1602 9.248 51.4429 9.87733 51.4429 10.656V16H50.6749L50.3389 15.216C50.0722 15.4613 49.7255 15.6853 49.2989 15.888C48.8722 16.0907 48.4455 16.192 48.0189 16.192C47.1229 16.192 46.4562 15.968 46.0189 15.52C45.5815 15.0613 45.3629 14.4853 45.3629 13.792C45.3629 13.024 45.6189 12.4427 46.1309 12.048C46.6535 11.6427 47.3309 11.44 48.1629 11.44H50.1629C50.1629 10.8 50.0615 10.256 49.8589 9.808C49.6562 9.36 49.1922 9.136 48.4669 9.136C47.9442 9.136 47.5122 9.19467 47.1709 9.312C46.8295 9.42933 46.5149 9.552 46.2269 9.68C46.1735 9.52 46.1149 9.36 46.0509 9.2C45.9869 9.04 45.9229 8.88 45.8589 8.72ZM56.9934 9.088C56.1507 9.088 55.5534 9.38667 55.2014 9.984C54.86 10.5707 54.6894 11.28 54.6894 12.112C54.6894 12.976 54.86 13.696 55.2014 14.272C55.5427 14.8373 56.14 15.12 56.9934 15.12C57.292 15.12 57.612 15.0507 57.9534 14.912C58.2947 14.7627 58.6147 14.5547 58.9134 14.288V9.936C58.6147 9.66933 58.2947 9.46133 57.9534 9.312C57.612 9.16267 57.292 9.088 56.9934 9.088ZM60.1934 4.72V16H59.4414L59.1054 15.296C58.7747 15.5627 58.396 15.7813 57.9694 15.952C57.5534 16.1227 57.1534 16.208 56.7694 16.208C55.6387 16.208 54.7907 15.824 54.2254 15.056C53.6707 14.2773 53.3934 13.3013 53.3934 12.128C53.3934 10.9333 53.676 9.952 54.2414 9.184C54.8174 8.40533 55.6707 8.016 56.8014 8.016C57.132 8.016 57.4894 8.09067 57.8734 8.24C58.2574 8.37867 58.604 8.56533 58.9134 8.8V4.864L60.1934 4.72ZM63.8848 9.36C64.2154 8.98667 64.6421 8.672 65.1648 8.416C65.6874 8.14933 66.1781 8.016 66.6368 8.016C67.5221 8.016 68.1781 8.27733 68.6048 8.8C69.0314 9.312 69.2448 9.95733 69.2448 10.736V15.984H67.9808V10.912C67.9808 10.3893 67.8528 9.95733 67.5968 9.616C67.3408 9.27467 66.9461 9.09867 66.4128 9.088C66.0821 9.088 65.6768 9.2 65.1968 9.424C64.7274 9.648 64.3221 9.95733 63.9808 10.352V16H62.7168V8.24H63.4848L63.8848 9.36ZM76.7103 9.936C76.4116 9.66933 76.0863 9.46133 75.7343 9.312C75.3929 9.16267 75.0729 9.088 74.7743 9.088C73.9423 9.088 73.3503 9.38667 72.9983 9.984C72.6569 10.5707 72.4863 11.28 72.4863 12.112C72.4863 12.976 72.6516 13.696 72.9823 14.272C73.3236 14.848 73.9209 15.136 74.7743 15.136C75.0729 15.136 75.3929 15.0613 75.7343 14.912C76.0863 14.7627 76.4116 14.5547 76.7103 14.288V9.936ZM77.9903 16.624C77.9903 17.4347 77.7076 18.112 77.1423 18.656C76.5876 19.2 75.7556 19.472 74.6463 19.472C74.3263 19.472 73.8943 19.408 73.3503 19.28C72.8063 19.1627 72.3689 18.9867 72.0383 18.752L72.4223 17.84C72.7423 17.9787 73.0569 18.112 73.3663 18.24C73.6863 18.368 74.1023 18.432 74.6143 18.432C75.2543 18.432 75.7609 18.2773 76.1343 17.968C76.5183 17.6693 76.7103 17.216 76.7103 16.608V15.424C76.4009 15.6587 76.0489 15.8453 75.6543 15.984C75.2703 16.1227 74.9076 16.192 74.5663 16.192C73.4356 16.192 72.5876 15.8133 72.0223 15.056C71.4676 14.288 71.1903 13.312 71.1903 12.128C71.1903 10.944 71.4729 9.96267 72.0383 9.184C72.6143 8.40533 73.4676 8.016 74.5983 8.016C74.9716 8.016 75.3663 8.10667 75.7823 8.288C76.1983 8.45867 76.5716 8.67733 76.9023 8.944C76.9556 8.83733 77.0089 8.72533 77.0623 8.608C77.1156 8.48 77.1689 8.35733 77.2223 8.24H77.9903V16.624ZM87.8149 15.968C87.6975 16.0213 87.5269 16.08 87.3029 16.144C87.0895 16.208 86.8655 16.24 86.6309 16.24C85.9695 16.24 85.4362 16.048 85.0309 15.664C84.6362 15.28 84.4389 14.72 84.4389 13.984V9.328H83.3349L83.3189 8.368H84.4389V6.4L85.7189 6.032V8.368H87.1269L87.5429 9.328H85.7189V13.808C85.7189 14.2027 85.8042 14.528 85.9749 14.784C86.1455 15.0293 86.4282 15.152 86.8229 15.152C86.9402 15.152 87.0682 15.136 87.2069 15.104C87.3455 15.0613 87.4522 15.024 87.5269 14.992L87.8149 15.968ZM90.154 6.704C89.9087 6.704 89.706 6.624 89.546 6.464C89.386 6.29333 89.306 6.08533 89.306 5.84C89.2953 5.60533 89.37 5.408 89.53 5.248C89.7007 5.07733 89.9087 4.992 90.154 4.992C90.3887 4.992 90.5913 5.07733 90.762 5.248C90.9433 5.408 91.034 5.60533 91.034 5.84C91.034 6.08533 90.9433 6.29333 90.762 6.464C90.5913 6.624 90.3887 6.704 90.154 6.704ZM89.53 16V8.24H90.81V16H89.53ZM99.2785 9.28C99.6092 8.928 100.025 8.62933 100.527 8.384C101.028 8.13867 101.508 8.016 101.967 8.016C102.863 8.016 103.524 8.27733 103.951 8.8C104.377 9.312 104.591 9.95733 104.591 10.736V15.984H103.311V10.912C103.311 10.3893 103.183 9.95733 102.927 9.616C102.671 9.27467 102.276 9.09867 101.743 9.088C101.401 9.088 101.033 9.184 100.639 9.376C100.255 9.568 99.8918 9.84 99.5505 10.192C99.5612 10.288 99.5665 10.384 99.5665 10.48C99.5772 10.5653 99.5825 10.6507 99.5825 10.736V15.984H98.3025V10.912C98.3025 10.3893 98.1745 9.95733 97.9185 9.616C97.6732 9.27467 97.2892 9.09867 96.7665 9.088C96.4145 9.088 96.0465 9.184 95.6625 9.376C95.2785 9.55733 94.9158 9.82933 94.5745 10.192V16H93.3105V8.24H94.0785L94.4465 9.12C94.7878 8.8 95.1878 8.53867 95.6465 8.336C96.1052 8.12267 96.5478 8.016 96.9745 8.016C97.5505 8.016 98.0305 8.13333 98.4145 8.368C98.8092 8.592 99.0972 8.896 99.2785 9.28ZM113.478 12.32H107.846C107.878 13.1413 108.097 13.824 108.502 14.368C108.907 14.9013 109.547 15.168 110.422 15.168C110.945 15.168 111.366 15.1147 111.686 15.008C112.017 14.8907 112.331 14.7627 112.63 14.624L113.03 15.552C112.699 15.776 112.267 15.936 111.734 16.032C111.201 16.1387 110.774 16.192 110.454 16.192C109.163 16.192 108.187 15.8133 107.526 15.056C106.865 14.288 106.534 13.3013 106.534 12.096C106.545 10.9227 106.859 9.952 107.478 9.184C108.107 8.416 108.998 8.032 110.15 8.032C111.355 8.032 112.209 8.45867 112.71 9.312C113.222 10.1547 113.478 11.1573 113.478 12.32ZM112.23 11.456C112.145 10.7627 111.937 10.1973 111.606 9.76C111.275 9.32267 110.774 9.104 110.102 9.104C109.43 9.104 108.907 9.32267 108.534 9.76C108.171 10.1973 107.953 10.7627 107.878 11.456H112.23ZM115.291 8.688C115.536 8.688 115.739 8.77867 115.899 8.96C116.07 9.13067 116.155 9.33333 116.155 9.568C116.155 9.80267 116.07 10.0053 115.899 10.176C115.739 10.3467 115.536 10.432 115.291 10.432C115.056 10.432 114.854 10.3467 114.683 10.176C114.512 10.0053 114.427 9.80267 114.427 9.568C114.427 9.33333 114.512 9.13067 114.683 8.96C114.854 8.77867 115.056 8.688 115.291 8.688ZM115.291 13.84C115.536 13.84 115.739 13.9253 115.899 14.096C116.07 14.256 116.155 14.4587 116.155 14.704C116.155 14.9493 116.07 15.1573 115.899 15.328C115.739 15.488 115.536 15.568 115.291 15.568C115.056 15.568 114.854 15.488 114.683 15.328C114.512 15.1573 114.427 14.9493 114.427 14.704C114.427 14.4587 114.512 14.256 114.683 14.096C114.854 13.9253 115.056 13.84 115.291 13.84ZM128.124 12.912C128.124 13.7653 127.825 14.528 127.228 15.2C126.631 15.872 125.852 16.208 124.892 16.208C123.783 16.208 122.876 15.8347 122.172 15.088C121.468 14.3413 121.116 13.2533 121.116 11.824C121.116 10.6507 121.548 9.43467 122.412 8.176C123.276 6.90667 124.396 6.13333 125.772 5.856L126.3 6.64C125.351 6.864 124.535 7.36533 123.852 8.144C123.169 8.912 122.727 9.76 122.524 10.688C122.812 10.432 123.159 10.208 123.564 10.016C123.98 9.824 124.412 9.728 124.86 9.728C125.863 9.728 126.657 10.0533 127.244 10.704C127.831 11.344 128.124 12.08 128.124 12.912ZM126.924 12.992C126.924 12.4053 126.737 11.8773 126.364 11.408C125.991 10.9387 125.484 10.704 124.844 10.704C124.268 10.704 123.761 10.8533 123.324 11.152C122.897 11.44 122.583 11.7653 122.38 12.128C122.412 13.0347 122.631 13.7653 123.036 14.32C123.441 14.8747 124.044 15.152 124.844 15.152C125.473 15.152 125.975 14.9333 126.348 14.496C126.732 14.048 126.924 13.5467 126.924 12.992ZM139.888 9.28C140.219 8.928 140.635 8.62933 141.136 8.384C141.637 8.13867 142.117 8.016 142.576 8.016C143.472 8.016 144.133 8.27733 144.56 8.8C144.987 9.312 145.2 9.95733 145.2 10.736V15.984H143.92V10.912C143.92 10.3893 143.792 9.95733 143.536 9.616C143.28 9.27467 142.885 9.09867 142.352 9.088C142.011 9.088 141.643 9.184 141.248 9.376C140.864 9.568 140.501 9.84 140.16 10.192C140.171 10.288 140.176 10.384 140.176 10.48C140.187 10.5653 140.192 10.6507 140.192 10.736V15.984H138.912V10.912C138.912 10.3893 138.784 9.95733 138.528 9.616C138.283 9.27467 137.899 9.09867 137.376 9.088C137.024 9.088 136.656 9.184 136.272 9.376C135.888 9.55733 135.525 9.82933 135.184 10.192V16H133.92V8.24H134.688L135.056 9.12C135.397 8.8 135.797 8.53867 136.256 8.336C136.715 8.12267 137.157 8.016 137.584 8.016C138.16 8.016 138.64 8.13333 139.024 8.368C139.419 8.592 139.707 8.896 139.888 9.28ZM148.263 6.704C148.018 6.704 147.815 6.624 147.655 6.464C147.495 6.29333 147.415 6.08533 147.415 5.84C147.405 5.60533 147.479 5.408 147.639 5.248C147.81 5.07733 148.018 4.992 148.263 4.992C148.498 4.992 148.701 5.07733 148.871 5.248C149.053 5.408 149.143 5.60533 149.143 5.84C149.143 6.08533 149.053 6.29333 148.871 6.464C148.701 6.624 148.498 6.704 148.263 6.704ZM147.639 16V8.24H148.919V16H147.639ZM152.588 9.36C152.919 8.98667 153.345 8.672 153.868 8.416C154.391 8.14933 154.881 8.016 155.34 8.016C156.225 8.016 156.881 8.27733 157.308 8.8C157.735 9.312 157.948 9.95733 157.948 10.736V15.984H156.684V10.912C156.684 10.3893 156.556 9.95733 156.3 9.616C156.044 9.27467 155.649 9.09867 155.116 9.088C154.785 9.088 154.38 9.2 153.9 9.424C153.431 9.648 153.025 9.95733 152.684 10.352V16H151.42V8.24H152.188L152.588 9.36ZM160.213 14.288C160.448 14.288 160.645 14.3733 160.805 14.544C160.976 14.704 161.061 14.9013 161.061 15.136C161.061 15.3813 160.976 15.5893 160.805 15.76C160.645 15.92 160.448 16 160.213 16C159.968 16 159.76 15.92 159.589 15.76C159.419 15.5893 159.333 15.3813 159.333 15.136C159.333 14.9013 159.419 14.704 159.589 14.544C159.76 14.3733 159.968 14.288 160.213 14.288Z" fill="#54370D"/>
</svg>
