<svg width="92" height="19" viewBox="0 0 92 19" fill="none" xmlns="http://www.w3.org/2000/svg">
<path d="M13.3333 18.5C12.5926 18.5 11.963 18.2375 11.4444 17.7125C10.9259 17.1875 10.6667 16.55 10.6667 15.8C10.6667 15.71 10.6889 15.5 10.7333 15.17L4.48889 11.48C4.25185 11.705 3.97778 11.8813 3.66667 12.0087C3.35556 12.1363 3.02222 12.2 2.66667 12.2C1.92593 12.2 1.2963 11.9375 0.777778 11.4125C0.259259 10.8875 0 10.25 0 9.5C0 8.75 0.259259 8.1125 0.777778 7.5875C1.2963 7.0625 1.92593 6.8 2.66667 6.8C3.02222 6.8 3.35556 6.86375 3.66667 6.99125C3.97778 7.11875 4.25185 7.295 4.48889 7.52L10.7333 3.83C10.7037 3.725 10.6852 3.62375 10.6778 3.52625C10.6704 3.42875 10.6667 3.32 10.6667 3.2C10.6667 2.45 10.9259 1.8125 11.4444 1.2875C11.963 0.7625 12.5926 0.5 13.3333 0.5C14.0741 0.5 14.7037 0.7625 15.2222 1.2875C15.7407 1.8125 16 2.45 16 3.2C16 3.95 15.7407 4.5875 15.2222 5.1125C14.7037 5.6375 14.0741 5.9 13.3333 5.9C12.9778 5.9 12.6444 5.83625 12.3333 5.70875C12.0222 5.58125 11.7481 5.405 11.5111 5.18L5.26667 8.87C5.2963 8.975 5.31482 9.07625 5.32222 9.17375C5.32963 9.27125 5.33333 9.38 5.33333 9.5C5.33333 9.62 5.32963 9.72875 5.32222 9.82625C5.31482 9.92375 5.2963 10.025 5.26667 10.13L11.5111 13.82C11.7481 13.595 12.0222 13.4187 12.3333 13.2913C12.6444 13.1638 12.9778 13.1 13.3333 13.1C14.0741 13.1 14.7037 13.3625 15.2222 13.8875C15.7407 14.4125 16 15.05 16 15.8C16 16.55 15.7407 17.1875 15.2222 17.7125C14.7037 18.2375 14.0741 18.5 13.3333 18.5ZM13.3333 16.7C13.5852 16.7 13.7963 16.6137 13.9667 16.4412C14.137 16.2687 14.2222 16.055 14.2222 15.8C14.2222 15.545 14.137 15.3313 13.9667 15.1587C13.7963 14.9862 13.5852 14.9 13.3333 14.9C13.0815 14.9 12.8704 14.9862 12.7 15.1587C12.5296 15.3313 12.4444 15.545 12.4444 15.8C12.4444 16.055 12.5296 16.2687 12.7 16.4412C12.8704 16.6137 13.0815 16.7 13.3333 16.7ZM2.66667 10.4C2.91852 10.4 3.12963 10.3138 3.3 10.1413C3.47037 9.96875 3.55556 9.755 3.55556 9.5C3.55556 9.245 3.47037 9.03125 3.3 8.85875C3.12963 8.68625 2.91852 8.6 2.66667 8.6C2.41481 8.6 2.2037 8.68625 2.03333 8.85875C1.86296 9.03125 1.77778 9.245 1.77778 9.5C1.77778 9.755 1.86296 9.96875 2.03333 10.1413C2.2037 10.3138 2.41481 10.4 2.66667 10.4ZM13.3333 4.1C13.5852 4.1 13.7963 4.01375 13.9667 3.84125C14.137 3.66875 14.2222 3.455 14.2222 3.2C14.2222 2.945 14.137 2.73125 13.9667 2.55875C13.7963 2.38625 13.5852 2.3 13.3333 2.3C13.0815 2.3 12.8704 2.38625 12.7 2.55875C12.5296 2.73125 12.4444 2.945 12.4444 3.2C12.4444 3.455 12.5296 3.66875 12.7 3.84125C12.8704 4.01375 13.0815 4.1 13.3333 4.1Z" fill="#4EA487"/>
<path d="M23.28 14.48C23.568 14.6187 23.952 14.7627 24.432 14.912C24.9227 15.0613 25.4293 15.136 25.952 15.136C26.7947 15.136 27.44 14.976 27.888 14.656C28.336 14.3253 28.56 13.8987 28.56 13.376C28.56 12.224 27.6 11.3867 25.68 10.864C23.76 10.3413 22.8 9.25867 22.8 7.616C22.8 6.848 23.1093 6.19733 23.728 5.664C24.3467 5.13067 25.1947 4.864 26.272 4.864C26.816 4.864 27.328 4.93333 27.808 5.072C28.2987 5.21067 28.7147 5.36533 29.056 5.536C28.992 5.70667 28.9227 5.872 28.848 6.032C28.7733 6.192 28.6987 6.35733 28.624 6.528C28.3467 6.38933 28.032 6.26133 27.68 6.144C27.328 6.02667 26.8853 5.968 26.352 5.968C25.68 5.968 25.1253 6.10667 24.688 6.384C24.2507 6.66133 24.032 7.06133 24.032 7.584C24.032 8.768 24.992 9.62667 26.912 10.16C28.8427 10.6933 29.808 11.7547 29.808 13.344C29.808 14.176 29.472 14.864 28.8 15.408C28.1387 15.9413 27.1947 16.208 25.968 16.208C25.5093 16.208 24.944 16.128 24.272 15.968C23.6107 15.808 23.1787 15.6427 22.976 15.472C23.0187 15.312 23.0667 15.152 23.12 14.992C23.1733 14.8213 23.2267 14.6507 23.28 14.48ZM33.1534 9.264C33.484 8.912 33.8947 8.61867 34.3854 8.384C34.876 8.13867 35.3454 8.016 35.7934 8.016C36.6894 8.016 37.3454 8.27733 37.7614 8.8C38.188 9.312 38.4014 9.95733 38.4014 10.736V15.984H37.1374V10.912C37.1374 10.3893 37.0094 9.95733 36.7534 9.616C36.508 9.27467 36.1134 9.09867 35.5694 9.088C35.2387 9.088 34.8387 9.2 34.3694 9.424C33.9 9.648 33.4947 9.95733 33.1534 10.352V16H31.8894V4.864L33.1534 4.704V9.264ZM41.5465 13.792C41.5465 14.1227 41.6585 14.4373 41.8825 14.736C42.1172 15.0347 42.4905 15.184 43.0025 15.184C43.4505 15.184 43.8612 15.072 44.2345 14.848C44.6078 14.624 44.9278 14.3573 45.1945 14.048V12.272H43.1465C42.6238 12.272 42.2238 12.4267 41.9465 12.736C41.6798 13.0347 41.5465 13.3867 41.5465 13.792ZM40.8745 8.72C41.1732 8.51733 41.5945 8.352 42.1385 8.224C42.6825 8.096 43.1145 8.032 43.4345 8.032C44.3305 8.032 45.0558 8.27733 45.6105 8.768C46.1758 9.248 46.4585 9.87733 46.4585 10.656V16H45.6905L45.3545 15.216C45.0878 15.4613 44.7412 15.6853 44.3145 15.888C43.8878 16.0907 43.4612 16.192 43.0345 16.192C42.1385 16.192 41.4718 15.968 41.0345 15.52C40.5972 15.0613 40.3785 14.4853 40.3785 13.792C40.3785 13.024 40.6345 12.4427 41.1465 12.048C41.6692 11.6427 42.3465 11.44 43.1785 11.44H45.1785C45.1785 10.8 45.0772 10.256 44.8745 9.808C44.6718 9.36 44.2078 9.136 43.4825 9.136C42.9598 9.136 42.5278 9.19467 42.1865 9.312C41.8452 9.42933 41.5305 9.552 41.2425 9.68C41.1892 9.52 41.1305 9.36 41.0665 9.2C41.0025 9.04 40.9385 8.88 40.8745 8.72ZM48.873 16V8.24H49.641L50.025 9.328C50.313 9.08267 50.681 8.84267 51.129 8.608C51.5877 8.36267 52.025 8.24 52.441 8.24C52.4837 8.41067 52.5317 8.58133 52.585 8.752C52.6383 8.912 52.6917 9.07733 52.745 9.248C52.2863 9.248 51.8223 9.376 51.353 9.632C50.8837 9.87733 50.4783 10.1707 50.137 10.512V16H48.873ZM60.6343 12.32H55.0023C55.0343 13.1413 55.2529 13.824 55.6583 14.368C56.0636 14.9013 56.7036 15.168 57.5783 15.168C58.1009 15.168 58.5223 15.1147 58.8423 15.008C59.1729 14.8907 59.4876 14.7627 59.7863 14.624L60.1863 15.552C59.8556 15.776 59.4236 15.936 58.8903 16.032C58.3569 16.1387 57.9303 16.192 57.6102 16.192C56.3196 16.192 55.3436 15.8133 54.6823 15.056C54.0209 14.288 53.6903 13.3013 53.6903 12.096C53.7009 10.9227 54.0156 9.952 54.6343 9.184C55.2636 8.416 56.1543 8.032 57.3063 8.032C58.5116 8.032 59.3649 8.45867 59.8663 9.312C60.3783 10.1547 60.6343 11.1573 60.6343 12.32ZM59.3863 11.456C59.3009 10.7627 59.0929 10.1973 58.7623 9.76C58.4316 9.32267 57.9303 9.104 57.2583 9.104C56.5863 9.104 56.0636 9.32267 55.6903 9.76C55.3276 10.1973 55.1089 10.7627 55.0343 11.456H59.3863ZM65.7434 9.088C64.9007 9.088 64.3034 9.38667 63.9514 9.984C63.61 10.5707 63.4394 11.28 63.4394 12.112C63.4394 12.976 63.61 13.696 63.9514 14.272C64.2927 14.8373 64.89 15.12 65.7434 15.12C66.042 15.12 66.362 15.0507 66.7034 14.912C67.0447 14.7627 67.3647 14.5547 67.6634 14.288V9.936C67.3647 9.66933 67.0447 9.46133 66.7034 9.312C66.362 9.16267 66.042 9.088 65.7434 9.088ZM68.9434 4.72V16H68.1914L67.8554 15.296C67.5247 15.5627 67.146 15.7813 66.7194 15.952C66.3034 16.1227 65.9034 16.208 65.5194 16.208C64.3887 16.208 63.5407 15.824 62.9754 15.056C62.4207 14.2773 62.1434 13.3013 62.1434 12.128C62.1434 10.9333 62.426 9.952 62.9914 9.184C63.5674 8.40533 64.4207 8.016 65.5514 8.016C65.882 8.016 66.2394 8.09067 66.6234 8.24C67.0074 8.37867 67.354 8.56533 67.6634 8.8V4.864L68.9434 4.72ZM71.3068 8.688C71.5521 8.688 71.7548 8.77867 71.9148 8.96C72.0854 9.13067 72.1708 9.33333 72.1708 9.568C72.1708 9.80267 72.0854 10.0053 71.9148 10.176C71.7548 10.3467 71.5521 10.432 71.3068 10.432C71.0721 10.432 70.8694 10.3467 70.6988 10.176C70.5281 10.0053 70.4428 9.80267 70.4428 9.568C70.4428 9.33333 70.5281 9.13067 70.6988 8.96C70.8694 8.77867 71.0721 8.688 71.3068 8.688ZM71.3068 13.84C71.5521 13.84 71.7548 13.9253 71.9148 14.096C72.0854 14.256 72.1708 14.4587 72.1708 14.704C72.1708 14.9493 72.0854 15.1573 71.9148 15.328C71.7548 15.488 71.5521 15.568 71.3068 15.568C71.0721 15.568 70.8694 15.488 70.6988 15.328C70.5281 15.1573 70.4428 14.9493 70.4428 14.704C70.4428 14.4587 70.5281 14.256 70.6988 14.096C70.8694 13.9253 71.0721 13.84 71.3068 13.84ZM81.6755 16H77.3395L77.1955 15.04H78.9075V8.464C78.7262 8.592 78.5395 8.72 78.3475 8.848C78.1662 8.96533 77.9848 9.08267 77.8035 9.2C77.6968 9.06133 77.5955 8.91733 77.4995 8.768C77.4035 8.61867 77.3075 8.47467 77.2115 8.336L79.3395 6.944H80.1875V15.04H81.5475C81.5688 15.2107 81.5902 15.376 81.6115 15.536C81.6435 15.6853 81.6648 15.84 81.6755 16ZM90.5793 13.232C90.5793 14.032 90.2699 14.7307 89.6513 15.328C89.0326 15.9147 88.1419 16.208 86.9793 16.208C85.8059 16.208 84.9099 15.9147 84.2913 15.328C83.6726 14.7413 83.3633 14.0427 83.3633 13.232C83.3633 12.6667 83.5713 12.1173 83.9873 11.584C84.4033 11.0507 84.8939 10.7147 85.4593 10.576C84.9899 10.384 84.5953 10.096 84.2753 9.712C83.9553 9.328 83.7953 8.87467 83.7953 8.352C83.7953 7.65867 84.0673 7.04533 84.6113 6.512C85.1659 5.97867 85.9553 5.712 86.9793 5.712C88.0033 5.712 88.7873 5.97867 89.3313 6.512C89.8753 7.04533 90.1473 7.65867 90.1473 8.352C90.1473 8.87467 89.9766 9.328 89.6353 9.712C89.3046 10.096 88.9259 10.384 88.4993 10.576C89.0326 10.7147 89.5126 11.0347 89.9393 11.536C90.3659 12.0267 90.5793 12.592 90.5793 13.232ZM85.0273 8.384C85.0166 8.81067 85.1819 9.18933 85.5233 9.52C85.8646 9.84 86.3499 10.048 86.9793 10.144C87.5979 10.048 88.0779 9.83467 88.4193 9.504C88.7606 9.17333 88.9313 8.8 88.9313 8.384C88.9313 7.94667 88.7659 7.56267 88.4353 7.232C88.1046 6.90133 87.6033 6.736 86.9313 6.736C86.3019 6.736 85.8273 6.90667 85.5073 7.248C85.1873 7.57867 85.0273 7.95733 85.0273 8.384ZM84.5953 13.264C84.5953 13.84 84.8246 14.304 85.2833 14.656C85.7526 15.008 86.3179 15.184 86.9793 15.184C87.6193 15.184 88.1739 15.008 88.6433 14.656C89.1126 14.304 89.3473 13.84 89.3473 13.264C89.3473 12.72 89.1446 12.2453 88.7393 11.84C88.3446 11.424 87.7579 11.1627 86.9793 11.056C86.1793 11.1627 85.5819 11.424 85.1873 11.84C84.7926 12.2453 84.5953 12.72 84.5953 13.264Z" fill="#54370D"/>
</svg>
